<?xml version="1.0" standalone="no"?>
<!DOCTYPE svg PUBLIC "-//W3C//DTD SVG 1.1//EN" "http://www.w3.org/Graphics/SVG/1.1/DTD/svg11.dtd" >
<!--
2013-9-30: Created.
-->
<svg>
<metadata>
Created by iconfont
</metadata>
<defs>

<font id="iconfont" horiz-adv-x="1024" >
  <font-face
    font-family="iconfont"
    font-weight="500"
    font-stretch="normal"
    units-per-em="1024"
    ascent="896"
    descent="-128"
  />
    <missing-glyph />
    
    <glyph glyph-name="geren" unicode="&#59031;" d="M512 384m-472.615385 0a472.615385 472.615385 0 1 1 945.23077 0 472.615385 472.615385 0 1 1-945.23077 0ZM728.615385 161.476923c0-29.538462-23.630769-53.169231-53.169231-53.169231H348.553846c-29.538462 0-53.169231 23.630769-53.169231 53.169231C295.384615 273.723077 385.969231 364.307692 498.215385 364.307692h11.815384c-63.015385 0-116.184615 51.2-116.184615 116.184616v64.984615c0 63.015385 51.2 116.184615 116.184615 116.184615h5.907693c63.015385 0 116.184615-51.2 116.184615-116.184615v-64.984615c0-63.015385-51.2-116.184615-116.184615-116.184616h11.815384C638.030769 364.307692 728.615385 273.723077 728.615385 161.476923z m-155.569231 338.707692V521.846154c0 43.323077-27.569231 76.8-61.046154 76.8-33.476923 0-61.046154-35.446154-61.046154-76.8v-21.661539c0-43.323077 27.569231-76.8 61.046154-76.8 33.476923 0 61.046154 35.446154 61.046154 76.8zM492.307692 305.230769c-64.984615 0-118.153846-53.169231-118.153846-118.153846 0-11.815385 7.876923-19.692308 19.692308-19.692308h236.307692c11.815385 0 19.692308 7.876923 19.692308 19.692308 0 64.984615-53.169231 118.153846-118.153846 118.153846h-39.384616z"  horiz-adv-x="1024" />

    
    <glyph glyph-name="tuichu" unicode="&#59033;" d="M510.030769 384m-472.615384 0a472.615385 472.615385 0 1 1 945.230769 0 472.615385 472.615385 0 1 1-945.230769 0ZM645.907692 565.169231c15.753846-11.815385 29.538462-23.630769 41.353846-39.384616 11.815385-13.784615 23.630769-29.538462 31.507693-47.261538 7.876923-17.723077 15.753846-35.446154 19.692307-53.169231 3.938462-19.692308 5.907692-37.415385 5.907693-57.107692 0-33.476923-5.907692-64.984615-19.692308-94.523077-11.815385-29.538462-29.538462-55.138462-51.2-76.8s-45.292308-39.384615-74.830769-51.2c-29.538462-11.815385-59.076923-19.692308-92.553846-19.692308-31.507692 0-63.015385 5.907692-92.553846 19.692308-29.538462 11.815385-53.169231 29.538462-74.83077 51.2-21.661538 21.661538-37.415385 47.261538-51.2 76.8-11.815385 29.538462-17.723077 61.046154-17.723077 94.523077 0 19.692308 1.969231 37.415385 5.907693 55.138461 3.938462 17.723077 9.846154 35.446154 19.692307 51.2 7.876923 15.753846 17.723077 31.507692 29.538462 45.292308 11.815385 13.784615 25.6 27.569231 39.384615 39.384615 7.876923 5.907692 15.753846 7.876923 25.6 5.907693s15.753846-5.907692 21.661539-13.784616c5.907692-7.876923 7.876923-15.753846 5.907692-25.6-1.969231-9.846154-5.907692-17.723077-13.784615-21.661538-21.661538-15.753846-39.384615-37.415385-51.2-61.046154-11.815385-23.630769-17.723077-49.230769-17.723077-76.8 0-23.630769 3.938462-45.292308 13.784615-66.953846 7.876923-21.661538 21.661538-39.384615 35.446154-55.138462 15.753846-15.753846 33.476923-27.569231 53.169231-37.415384 19.692308-9.846154 43.323077-13.784615 64.984615-13.784616 23.630769 0 45.292308 3.938462 64.984616 13.784616 19.692308 9.846154 39.384615 21.661538 53.16923 37.415384 15.753846 15.753846 27.569231 33.476923 35.446154 55.138462 9.846154 21.661538 13.784615 43.323077 13.784616 66.953846 0 27.569231-5.907692 55.138462-19.692308 78.769231-11.815385 25.6-29.538462 45.292308-53.169231 61.046154-7.876923 5.907692-11.815385 11.815385-13.784615 21.661538-1.969231 9.846154 0 17.723077 5.907692 25.6s11.815385 11.815385 21.661538 13.784616c17.723077 5.907692 27.569231 3.938462 35.446154-1.969231z m-135.876923-196.923077c-9.846154 0-17.723077 3.938462-23.630769 9.846154-5.907692 5.907692-9.846154 13.784615-9.846154 23.630769V606.523077c0 9.846154 3.938462 17.723077 9.846154 23.630769 5.907692 5.907692 13.784615 9.846154 23.630769 9.846154s17.723077-3.938462 23.630769-9.846154c5.907692-5.907692 9.846154-15.753846 9.846154-23.630769v-204.8c0-9.846154-3.938462-17.723077-9.846154-23.630769-7.876923-7.876923-15.753846-9.846154-23.630769-9.846154z m0 0"  horiz-adv-x="1024" />

    
    <glyph glyph-name="xiugai1" unicode="&#59034;" d="M512 376.123077m-472.615385 0a472.615385 472.615385 0 1 1 945.23077 0 472.615385 472.615385 0 1 1-945.23077 0ZM748.307692 110.276923H275.692308c-11.815385 0-19.692308 7.876923-19.692308 19.692308v196.923077c0 11.815385 7.876923 19.692308 19.692308 19.692307h19.692307c11.815385 0 19.692308-7.876923 19.692308-19.692307v-157.538462h393.846154v157.538462c0 11.815385 7.876923 19.692308 19.692308 19.692307h19.692307c11.815385 0 19.692308-7.876923 19.692308-19.692307v-196.923077c0-11.815385-7.876923-19.692308-19.692308-19.692308zM608.492308 641.969231l33.476923-19.692308c9.846154-5.907692 11.815385-17.723077 7.876923-27.569231L630.153846 561.230769c-5.907692-9.846154-17.723077-11.815385-27.569231-7.876923l-33.476923 19.692308c-9.846154 5.907692-11.815385 17.723077-7.876923 27.569231l19.692308 33.476923c5.907692 9.846154 17.723077 13.784615 27.569231 7.876923zM541.538462 565.169231l68.923076-39.384616L482.461538 305.230769l-82.707692-64.984615 13.784616 104.369231 128 220.553846z"  horiz-adv-x="1024" />

    
    <glyph glyph-name="cailiaojiancefapiaodengji" unicode="&#59006;" d="M710.4 716.8H329.6c-54.4 0-99.2-38.4-99.2-86.4V128c-3.2-22.4 16-51.2 44.8-51.2 38.4 0 41.6 48 76.8 51.2h6.4c35.2-3.2 38.4-44.8 73.6-48h6.4c35.2 3.2 38.4 48 73.6 48h6.4c35.2-3.2 38.4-44.8 73.6-48h6.4c35.2 3.2 38.4 48 73.6 48h9.6c28.8-3.2 35.2-35.2 60.8-44.8 32-16 64 19.2 64 44.8V633.6c3.2 48-41.6 83.2-96 83.2z m-60.8-348.8c16 0 28.8-12.8 28.8-28.8 0-12.8-12.8-25.6-28.8-25.6h-102.4v-51.2c0-12.8-9.6-22.4-28.8-22.4-16 0-28.8 9.6-28.8 22.4v51.2h-102.4c-16 0-28.8 12.8-28.8 28.8 0 12.8 12.8 25.6 28.8 25.6h102.4v25.6h-102.4c-16 0-28.8 12.8-28.8 28.8 0 12.8 12.8 25.6 28.8 25.6h80l-86.4 134.4c-3.2 3.2-6.4 12.8-3.2 19.2 0 6.4 6.4 12.8 16 16 12.8 6.4 28.8 0 38.4-9.6l89.6-134.4L611.2 608c6.4 9.6 25.6 16 38.4 9.6 3.2 0 6.4-3.2 9.6-6.4v3.2-6.4l3.2-3.2c3.2-6.4 3.2-12.8 0-19.2l-9.6-16-80-121.6h76.8c16 0 28.8-12.8 28.8-28.8 0-12.8-12.8-25.6-28.8-25.6h-102.4v-25.6h102.4z m19.2 0"  horiz-adv-x="1024" />

    
    <glyph glyph-name="yangpintaizhang" unicode="&#59007;" d="M806.4 102.4c-12.8-22.4-38.4-38.4-64-38.4H316.8c-25.6 0-51.2 12.8-64 38.4l-9.6 19.2c-6.4 19.2-3.2 41.6 3.2 60.8l76.8 163.2 51.2 112V624H352c-12.8 0-25.6 12.8-25.6 25.6v25.6c0 16 9.6 28.8 25.6 28.8H707.2c12.8 0 25.6-12.8 25.6-25.6v-25.6c0-16-12.8-25.6-25.6-25.6h-25.6v-169.6l54.4-118.4 73.6-156.8c9.6-28.8 9.6-57.6-3.2-80z m-201.6 332.8V624h-153.6v-185.6l-32-67.2h38.4c76.8-6.4 67.2-67.2 140.8-67.2 19.2 0 41.6 3.2 64 9.6l-57.6 121.6z m-38.4-22.4c-6.4-3.2-16-3.2-25.6 0-6.4 3.2-12.8 12.8-12.8 22.4 0 9.6 6.4 19.2 12.8 22.4 6.4 3.2 16 3.2 25.6 0 6.4-3.2 12.8-12.8 12.8-22.4 0-6.4-3.2-16-12.8-22.4z"  horiz-adv-x="1024" />

    
    <glyph glyph-name="cailiaojianceyewuguanli" unicode="&#59008;" d="M835.2 195.2L566.4 672c-9.6 16-25.6 28.8-41.6 28.8s-32-9.6-41.6-28.8l-108.8-192h-128c-25.6 0-44.8-19.2-44.8-44.8v-265.6c0-25.6 19.2-44.8 44.8-44.8h544c19.2 0 38.4 9.6 44.8 22.4 9.6 12.8 9.6 32 0 48zM265.6 412.8h256v-32h-256v32z m0-96h256v-32h-256v32z m0-128v32h256v-32h-256z m492.8 12.8l-172.8-12.8v224c0 44.8-16 64-64 64h-64l64 112s0 3.2 3.2 3.2c0 0 0-3.2 3.2-3.2l236.8-380.8c0-3.2 3.2-3.2 3.2-6.4h-9.6z m0 0"  horiz-adv-x="1024" />

    
    <glyph glyph-name="yangpinsunhuaidiushi" unicode="&#59009;" d="M691.2 640v-102.4l102.4-262.4c-19.2-3.2-35.2-9.6-48-22.4l-102.4 265.6V640h-224v-121.6L256 105.6h444.8c6.4-19.2 19.2-38.4 35.2-51.2H268.8c-19.2 0-38.4 9.6-48 28.8-9.6 19.2-12.8 41.6-3.2 60.8l153.6 393.6V640h-32V691.2h384V640h-32z m-73.6-233.6l86.4-204.8c-6.4-12.8-9.6-28.8-12.8-44.8h-352s89.6 211.2 89.6 208c76.8-83.2 188.8 41.6 188.8 41.6z m-86.4 9.6c0-19.2-12.8-35.2-32-35.2s-32 16-32 35.2c0 19.2 12.8 35.2 32 35.2s32-16 32-35.2z m16 172.8c25.6 0 48-22.4 48-51.2 0-28.8-22.4-51.2-48-51.2s-48 22.4-48 51.2c0 28.8 22.4 51.2 48 51.2z"  horiz-adv-x="1024" />

    
    <glyph glyph-name="cailiaojianceshoufeidengji" unicode="&#59010;" d="M694.4 224h-128v-96h176c9.6 0 22.4 3.2 32 6.4 9.6 3.2 19.2 9.6 25.6 16 6.4 6.4 12.8 16 16 25.6 3.2 9.6 6.4 19.2 6.4 28.8V627.2c0 9.6-3.2 19.2-6.4 28.8-3.2 9.6-9.6 16-16 25.6-6.4 6.4-16 12.8-25.6 16-9.6 3.2-19.2 6.4-32 6.4h-480c-9.6 0-22.4-3.2-32-6.4-6.4-3.2-16-9.6-22.4-16-9.6-6.4-12.8-16-19.2-25.6-3.2-9.6-6.4-19.2-6.4-28.8V480h96c0 19.2-9.6 32 32 32h384c9.6 0 25.6 6.4 32 0 6.4-6.4 0-22.4 0-32v-224s-3.2-32-32-32z m-329.6 256c-25.6 0-48-3.2-70.4-12.8-22.4-9.6-41.6-22.4-57.6-38.4s-28.8-35.2-38.4-57.6c-9.6-22.4-12.8-44.8-12.8-70.4 0-25.6 3.2-48 12.8-67.2 9.6-22.4 22.4-38.4 38.4-54.4s35.2-28.8 57.6-38.4c22.4-9.6 44.8-12.8 70.4-12.8 25.6 0 48 3.2 70.4 12.8 22.4 9.6 41.6 22.4 57.6 38.4s28.8 35.2 38.4 54.4c9.6 22.4 12.8 44.8 12.8 67.2s-3.2 48-12.8 70.4c-9.6 22.4-22.4 41.6-38.4 57.6s-35.2 28.8-57.6 38.4c-22.4 9.6-48 12.8-70.4 12.8zM320 323.2l-57.6 51.2 28.8 28.8 64-60.8-19.2-19.2h67.2l-19.2 25.6 57.6 54.4 25.6-32-54.4-51.2h54.4v-38.4H384v-38.4h80v-38.4H384v-38.4h-41.6v38.4H262.4v38.4h80v38.4H262.4V320H320z m0 0"  horiz-adv-x="1024" />

    
    <glyph glyph-name="guanlibumenshenhe" unicode="&#59011;" d="M675.2 323.2v3.2c0 16 12.8 28.8 28.8 28.8s28.8-12.8 28.8-28.8v-3.2c9.6-3.2 19.2-6.4 28.8-12.8l3.2 3.2c12.8 12.8 28.8 12.8 41.6 0s12.8-28.8 0-41.6l-3.2-3.2c6.4-9.6 9.6-19.2 12.8-28.8h3.2c16 0 28.8-12.8 28.8-28.8s-12.8-28.8-28.8-28.8h-3.2c-3.2-9.6-6.4-19.2-12.8-28.8l3.2-3.2c12.8-12.8 12.8-28.8 0-41.6s-28.8-12.8-41.6 0l-3.2 3.2c-9.6-6.4-19.2-9.6-28.8-12.8v-3.2c0-16-12.8-28.8-28.8-28.8s-28.8 12.8-28.8 28.8c-9.6 3.2-19.2 6.4-28.8 12.8l-3.2-3.2c-12.8-9.6-28.8-9.6-41.6 0-12.8 12.8-12.8 28.8 0 41.6l3.2 3.2c-6.4 9.6-9.6 19.2-12.8 28.8h-3.2c-16 0-28.8 12.8-28.8 28.8s12.8 28.8 28.8 28.8h3.2c3.2 9.6 6.4 19.2 12.8 28.8l-3.2 3.2c-12.8 12.8-12.8 28.8 0 41.6s28.8 12.8 41.6 0l3.2-3.2c9.6 9.6 19.2 12.8 28.8 16z m-166.4-172.8H240c-16 0-28.8 12.8-28.8 28.8v28.8c0 92.8 54.4 176 137.6 211.2 83.2 38.4 182.4 22.4 249.6-38.4-60.8-38.4-96-102.4-96-172.8 0-19.2 3.2-38.4 6.4-57.6z m-64 291.2c-64 0-115.2 57.6-115.2 131.2S377.6 704 444.8 704c64 0 115.2-57.6 115.2-131.2s-51.2-131.2-115.2-131.2z m259.2-291.2c19.2 0 38.4 9.6 51.2 28.8 9.6 19.2 9.6 41.6 0 57.6-9.6 19.2-28.8 28.8-51.2 28.8-32 0-57.6-25.6-57.6-57.6s25.6-57.6 57.6-57.6z m0 0"  horiz-adv-x="1024" />

    
    <glyph glyph-name="hetongneirongshenhe" unicode="&#59012;" d="M780.8 64H243.2c-9.6 0-19.2 9.6-19.2 19.2V524.8c0 3.2 3.2 9.6 3.2 12.8 0 3.2 3.2 3.2 3.2 6.4l156.8 153.6c6.4 3.2 9.6 6.4 16 6.4h377.6c9.6 0 19.2-9.6 19.2-19.2v-601.6c0-9.6-9.6-19.2-19.2-19.2zM736 640h-288v-96s-3.2-32-32-32H288v-384h448V640z m-265.6-361.6l163.2 169.6 41.6-41.6-163.2-169.6-41.6-44.8-118.4 121.6 41.6 41.6 76.8-76.8z m0 0"  horiz-adv-x="1024" />

    
    <glyph glyph-name="jishubumenshenhe" unicode="&#59013;" d="M609.42131687 240.15736626l14.99999999-59.99999999h66v-90h-360v90h84l14.99999999 59.99999999H240.42131685c-6 0-30-3-29.99999999 3.00000002V681.15736627c0 6 3 9 9 9h582c6 0 9-3 9.00000001-9v-441.00000001h-201z m140.99999999 390.00000002h-479.99999999v-330.00000002h479.99999999v330.00000002z m-33-30.00000001c3 0 3-3 3-3v-263.99999999c0-3-3-3-3-3.00000001H303.42131686c-3 0-3 3-3 3.00000001V597.15736627c0 3 3 3 3 3h414z m-245.99999999-269.99999999l38.99999998 38.99999999 153.00000002 159.00000001-39.00000001 38.99999999-152.99999999-155.99999999-72 75-39-39.00000001 111-116.99999999z"  horiz-adv-x="1024" />

    
    <glyph glyph-name="jiancexiangmuku" unicode="&#59014;" d="M816 224h-256v-64c0-9.6 0-32 9.6-35.2l60.8-16c12.8-3.2 19.2-16 16-28.8-3.2-12.8-16-19.2-28.8-16l-54.4 16c-19.2 6.4-41.6 6.4-64 0l-57.6-16c-12.8-3.2-25.6 3.2-28.8 16-3.2 12.8 3.2 25.6 16 28.8l60.8 16c9.6 3.2 3.2 25.6 3.2 35.2v64s-12.8 19.2 0 0h-256c-25.6 0-32 3.2-32 28.8V595.2c3.2 25.6 22.4 44.8 48 44.8H800c25.6 0 44.8-19.2 44.8-44.8V256c3.2-28.8-3.2-32-28.8-32z m-416 272c0 25.6-19.2 48-44.8 48-25.6 0-44.8-22.4-44.8-48v-160c0-25.6 19.2-48 44.8-48 25.6 0 44.8 22.4 44.8 48v160z m192 0c0 25.6-28.8 48-64 48s-64-22.4-64-48v-160c0-25.6 28.8-48 64-48s64 22.4 64 48v160z m160 0c0 25.6-22.4 48-48 48s-48-22.4-48-48v-160c0-25.6 22.4-48 48-48s48 22.4 48 48v160z"  horiz-adv-x="1024" />

    
    <glyph glyph-name="mobanhehanshuku" unicode="&#59015;" d="M713.6 64H339.2c-73.6 0-131.2 60.8-131.2 131.2V572.8C204.8 643.2 265.6 704 339.2 704h374.4c73.6 0 131.2-60.8 131.2-131.2v-374.4c0-73.6-57.6-134.4-131.2-134.4zM624 662.4c-9.6 3.2-19.2 9.6-41.6 9.6-32 0-54.4-9.6-80-25.6-19.2-19.2-44.8-44.8-67.2-86.4-6.4-16-16-19.2-19.2-25.6-6.4-6.4-16-6.4-32-6.4l-9.6-35.2H416l-60.8-233.6c-9.6-41.6-16-60.8-19.2-70.4-6.4-16-16-25.6-25.6-35.2-6.4-6.4-9.6-6.4-16-6.4H288l6.4 6.4c6.4 6.4 6.4 9.6 6.4 16s0 9.6-6.4 16-9.6 6.4-19.2 6.4-19.2-6.4-25.6-9.6c-6.4-6.4-9.6-9.6-9.6-19.2 0-6.4 0-16 9.6-19.2 3.2-9.6 19.2-16 35.2-16 25.6 0 44.8 6.4 70.4 19.2 25.6 16 41.6 35.2 54.4 67.2 16 25.6 32 70.4 44.8 137.6l35.2 137.6 41.6-6.4 9.6 35.2h-41.6c9.6 44.8 25.6 80 44.8 105.6 9.6 16 25.6 19.2 35.2 19.2h6.4V640s0-6.4-6.4-9.6-6.4-9.6-6.4-16 6.4-9.6 9.6-16c6.4-6.4 9.6-6.4 19.2-6.4s16 6.4 19.2 9.6c12.8 9.6 19.2 19.2 19.2 28.8 0 16-6.4 25.6-16 32z m153.6-179.2c-6.4 6.4-9.6 6.4-19.2 6.4-6.4 0-16 0-19.2-6.4l-25.6-25.6c-6.4-6.4-9.6-9.6-16-19.2-6.4-6.4-12.8-16-22.4-28.8-6.4 28.8-16 54.4-28.8 76.8l-86.4-16h16c6.4 0 16-6.4 19.2-9.6 9.6-9.6 19.2-44.8 35.2-102.4-9.6-16-19.2-25.6-25.6-32-9.6-6.4-16-16-19.2-16-6.4-6.4-9.6-6.4-16-6.4 0 0-6.4 0-16 6.4-6.4 9.6-9.6 9.6-16 9.6-9.6 0-16-6.4-19.2-9.6-6.4-6.4-9.6-9.6-9.6-19.2s0-16 6.4-19.2c6.4-6.4 9.6-6.4 19.2-6.4 6.4 0 16 0 19.2 6.4 6.4 0 16 9.6 25.6 19.2 9.6 9.6 25.6 25.6 44.8 51.2 9.6-25.6 16-41.6 19.2-51.2 6.4-9.6 16-16 19.2-19.2 6.4-6.4 16-6.4 25.6-6.4s19.2 6.4 32 9.6c9.6 9.6 25.6 25.6 41.6 51.2l-9.6 6.4c-9.6-16-16-19.2-19.2-25.6 0-6.4-6.4-6.4-9.6-6.4s-9.6 6.4-16 9.6c-9.6 16-19.2 41.6-35.2 92.8 0 3.2 3.2 6.4 3.2 9.6v-3.2c6.4 12.8 12.8 22.4 19.2 32 3.2 0 3.2 3.2 6.4 3.2 6.4 6.4 16 6.4 19.2 6.4s9.6-6.4 16-6.4c9.6-6.4 16-6.4 19.2-6.4 9.6 0 16 0 19.2 6.4 6.4 6.4 6.4 9.6 6.4 19.2s0 16-3.2 19.2z"  horiz-adv-x="1024" />

    
    <glyph glyph-name="jiancexiangmupeizhiguanli" unicode="&#59016;" d="M636.8 704c9.6 0 19.2-3.2 25.6-9.6l134.4-134.4c6.4-6.4 12.8-19.2 9.6-28.8v-156.8c-32 64-96 108.8-172.8 108.8-105.6 0-192-86.4-192-192s86.4-192 192-192c16 0 28.8 3.2 44.8 6.4l41.6-41.6H275.2c-28.8 0-54.4 25.6-54.4 54.4V649.6c0 28.8 22.4 54.4 54.4 54.4h361.6z m137.6-476.8l76.8-76.8c9.6-9.6 9.6-28.8 0-38.4l-38.4-38.4c-9.6-9.6-28.8-9.6-38.4 0l-76.8 76.8c-6.4 6.4-12.8 6.4-22.4 6.4-48-12.8-102.4-3.2-140.8 35.2-35.2 32-48 80-38.4 124.8 3.2 12.8 19.2 16 25.6 6.4l76.8-73.6c9.6-9.6 28.8-9.6 38.4 0l38.4 38.4c9.6 9.6 9.6 28.8 0 38.4l-76.8 76.8c-9.6 9.6-3.2 25.6 6.4 25.6 44.8 9.6 92.8-3.2 124.8-38.4 38.4-38.4 51.2-92.8 35.2-137.6 3.2-9.6 3.2-19.2 9.6-25.6z m0 0"  horiz-adv-x="1024" />

    
    <glyph glyph-name="pingdingbiaozhunku" unicode="&#59017;" d="M524.8 691.2c-73.6-54.4-153.6-89.6-288-89.6v-236.8c0-112 153.6-313.6 288-313.6s288 198.4 288 313.6V601.6c-134.4 0-214.4 38.4-288 89.6z m-35.2-176h166.4v-28.8h-166.4v28.8z m-48-268.8h-32v134.4c-9.6-22.4-22.4-44.8-35.2-64 0 3.2 0 6.4-3.2 9.6-3.2 16-6.4 25.6-6.4 32 19.2 25.6 32 54.4 41.6 89.6h-35.2v25.6h35.2v57.6h32v-57.6h32v-25.6h-32v-44.8l9.6 9.6c12.8-9.6 25.6-22.4 35.2-35.2l-19.2-22.4c-9.6 9.6-16 19.2-25.6 28.8v-137.6z m48 32c-3.2 3.2-12.8 6.4-25.6 9.6h-6.4c19.2 32 35.2 60.8 44.8 92.8l32-9.6c-6.4-16-19.2-38.4-35.2-67.2-3.2-12.8-6.4-19.2-9.6-25.6z m99.2 6.4c0-22.4-12.8-35.2-38.4-35.2h-35.2c0 9.6-3.2 19.2-6.4 32h28.8c12.8 0 19.2 3.2 19.2 16v108.8h-80v28.8h192v-28.8h-83.2l3.2-121.6z m57.6-3.2c-12.8 28.8-25.6 57.6-41.6 89.6l28.8 9.6 16-32c9.6-25.6 22.4-44.8 28.8-57.6l-32-9.6z m0 0"  horiz-adv-x="1024" />

    
    <glyph glyph-name="renwufenpei" unicode="&#59018;" d="M563.2 704c156.8-12.8 281.6-137.6 294.4-294.4h-294.4V704z m-25.6-640c-80 0-153.6 28.8-211.2 80l214.4 217.6h313.6c-12.8-166.4-150.4-297.6-316.8-297.6z m-320 320c0 169.6 131.2 307.2 294.4 320v-304l-220.8-220.8c-48 54.4-73.6 128-73.6 204.8z"  horiz-adv-x="1024" />

    
    <glyph glyph-name="renwuqueren" unicode="&#59019;" d="M524.8 704c-176 0-320-144-320-320s144-320 320-320 320 144 320 320-144 320-320 320z m156.8-243.2c-51.2-67.2-99.2-134.4-150.4-201.6-9.6-12.8-35.2-25.6-51.2-12.8-35.2 25.6-73.6 51.2-108.8 73.6-16 12.8-25.6 28.8-12.8 48 9.6 16 35.2 22.4 51.2 12.8 35.2-25.6 80-54.4 80-54.4 41.6 57.6 83.2 115.2 128 169.6 25.6 38.4 92.8 3.2 64-35.2z m0 0"  horiz-adv-x="1024" />

    
    <glyph glyph-name="renwuguanli" unicode="&#59020;" d="M294.4 521.6H768c44.8 0 83.2 41.6 83.2 96s-38.4 96-83.2 96H294.4c-44.8 0-83.2-41.6-83.2-96 0-51.2 35.2-96 83.2-96z m268.8 128h195.2c16 0 28.8-12.8 28.8-32s-12.8-32-28.8-32h-195.2v64z m204.8-160H294.4c-44.8 0-83.2-41.6-83.2-96s38.4-96 83.2-96H768c44.8 0 83.2 41.6 83.2 96s-38.4 96-83.2 96z m0-128h-307.2v64H768c16 0 28.8-12.8 28.8-32s-12.8-32-28.8-32z m0-96H294.4c-44.8 0-83.2-41.6-83.2-96 0-51.2 38.4-96 83.2-96H768c44.8 0 83.2 41.6 83.2 96s-38.4 96-83.2 96z m0-128h-140.8v64H768c16 0 28.8-12.8 28.8-32 0-16-12.8-32-28.8-32z m0 0"  horiz-adv-x="1024" />

    
    <glyph glyph-name="shiyancanshuku" unicode="&#59021;" d="M553.6 700.8c284.8-6.4 278.4-268.8 278.4-268.8h-278.4V700.8z m198.4-336c0-150.4-124.8-268.8-281.6-268.8-153.6 0-281.6 121.6-281.6 268.8 0 150.4 124.8 268.8 281.6 268.8v-268.8h281.6z m0 0"  horiz-adv-x="1024" />

    
    <glyph glyph-name="renwutaizhang" unicode="&#59022;" d="M774.4 204.8h-233.6v-57.6h144v-35.2H336v35.2H480v57.6H249.6c-28.8 0-57.6 25.6-57.6 57.6V601.6c0 32 25.6 54.4 54.4 54.4h531.2c28.8 0 54.4-25.6 54.4-54.4v-339.2c0-32-28.8-57.6-57.6-57.6zM768 592H256v-320h512v320z m-96-288H352v256h320v-256z m-22.4 240h-272v-224h272v224z m-243.2-89.6h48c6.4 0 12.8-6.4 12.8-9.6 0-6.4-6.4-9.6-12.8-9.6h-48c-6.4 0-12.8 6.4-12.8 9.6 0 3.2 6.4 9.6 12.8 9.6z m0-54.4h48c6.4 0 9.6-6.4 9.6-9.6 0-6.4-3.2-9.6-9.6-9.6h-48c-6.4 0-12.8 6.4-12.8 9.6 0 3.2 6.4 9.6 12.8 9.6z m83.2 54.4h48c6.4 0 12.8-6.4 12.8-9.6 0-6.4-6.4-9.6-12.8-9.6h-48c-3.2 0-9.6 3.2-9.6 6.4-3.2 3.2-3.2 6.4 0 12.8 0-3.2 3.2 0 9.6 0z m0-54.4h48c6.4 0 12.8-6.4 12.8-9.6 0-6.4-6.4-9.6-12.8-9.6h-48c-6.4 0-9.6 6.4-9.6 9.6s3.2 9.6 9.6 9.6z m80 108.8h48c6.4 0 9.6-6.4 9.6-9.6 0-6.4-6.4-9.6-9.6-9.6h-48c-3.2 0-9.6 3.2-9.6 6.4-3.2 3.2-3.2 6.4 0 9.6 3.2 0 6.4 3.2 9.6 3.2z m0-54.4h48c6.4 0 12.8-6.4 12.8-9.6 0-6.4-6.4-9.6-12.8-9.6h-48c-6.4 0-12.8 6.4-12.8 9.6 3.2 3.2 6.4 9.6 12.8 9.6z m0-54.4h48c6.4 0 12.8-6.4 12.8-9.6 0-6.4-6.4-9.6-12.8-9.6h-48c-6.4 0-12.8 6.4-12.8 9.6 3.2 3.2 6.4 9.6 12.8 9.6z m-35.2 86.4h-48c-6.4 0-12.8 6.4-12.8 9.6 0 6.4 6.4 9.6 12.8 9.6h48c6.4 0 9.6-6.4 9.6-9.6 3.2-3.2-3.2-9.6-9.6-9.6z m-80 0h-48c-6.4 0-9.6 6.4-9.6 9.6 0 6.4 6.4 9.6 9.6 9.6h48c6.4 0 9.6-6.4 9.6-9.6 0-3.2-3.2-9.6-9.6-9.6z"  horiz-adv-x="1024" />

    
    <glyph glyph-name="waiweihetongguanli-" unicode="&#59023;" d="M768 54.4H288c-25.6 0-48 19.2-48 44.8V646.4c0 25.6 22.4 48 48 48h480c25.6 0 48-19.2 48-44.8v-547.2c0-28.8-22.4-48-48-48z m-377.6 288h118.4c12.8 0 19.2 12.8 19.2 32 0 16-9.6 32-19.2 32h-118.4c-12.8 0-19.2-12.8-19.2-32-3.2-19.2 6.4-32 19.2-32z m246.4 252.8h-249.6c-9.6 0-19.2-12.8-19.2-32 0-16 9.6-32 19.2-32h249.6c9.6 0 19.2 12.8 19.2 32s-9.6 32-19.2 32z m0-96h-249.6c-9.6 0-19.2-12.8-19.2-32 0-16 9.6-32 19.2-32h249.6c9.6 0 19.2 12.8 19.2 32s-9.6 32-19.2 32z m73.6-192l-80-19.2-60.8 51.2-6.4-80-67.2-35.2 73.6-28.8 16-76.8 51.2 60.8 80-6.4-41.6 67.2 35.2 67.2z m-86.4-92.8l-16-16-6.4 22.4-22.4 9.6 19.2 12.8 3.2 22.4 16-16 22.4 6.4-9.6-22.4 12.8-19.2h-19.2z"  horiz-adv-x="1024" />

    
    <glyph glyph-name="shiyanfangfabiaozhunku" unicode="&#59024;" d="M800 294.4c0-128-128-230.4-288-230.4s-288 102.4-288 230.4c0 160 76.8 185.6 192 217.6v32c-35.2 0-64 12.8-64 96 0 28.8 35.2 64 70.4 64h176C636.8 704 672 668.8 672 640c0-70.4-25.6-96-64-96v-32c112-28.8 192-70.4 192-217.6z m-243.2-131.2c3.2-6.4 9.6-9.6 19.2-9.6 3.2 0 6.4 0 9.6 3.2 41.6 19.2 76.8 44.8 99.2 80 6.4 9.6 3.2 19.2-9.6 25.6-9.6 3.2-25.6 0-28.8-9.6-19.2-28.8-48-51.2-80-64-9.6-6.4-16-19.2-9.6-25.6zM320 384h384c-28.8 28.8-60.8 86.4-128 96h-32v64h-64v-64h-32s-83.2-44.8-128-96z m268.8 256h-153.6c-9.6 0-19.2-6.4-19.2-16s9.6-16 19.2-16h153.6c9.6 0 19.2 9.6 19.2 16s-9.6 16-19.2 16z"  horiz-adv-x="1024" />

    
    <glyph glyph-name="shiyanyuanshishujuku" unicode="&#59025;" d="M204.8 633.6C204.8 672 236.8 704 278.4 704h499.2c38.4 0 70.4-32 70.4-70.4v-499.2c0-38.4-32-70.4-70.4-70.4H278.4c-38.4 0-70.4 32-70.4 70.4V633.6z m128-217.6v-256h96v256h-96z m160 128v-384h64V544h-64z m128-224v-160h96v160h-96z m0 0"  horiz-adv-x="1024" />

    
    <glyph glyph-name="shoufeijiesuan" unicode="&#59026;" d="M521.6 262.4l3.2-76.8h25.6V256c-3.2 0-6.4 0-9.6 3.2-6.4 0-12.8 0-19.2 3.2M467.2 352c0-6.4 0-12.8 6.4-16l6.4-6.4 3.2 44.8c-9.6-6.4-12.8-12.8-16-22.4m67.2 35.2h-12.8v-70.4c6.4 0 12.8-3.2 19.2-3.2 3.2 0 6.4-3.2 9.6-3.2v80c-6.4-3.2-9.6-3.2-16-3.2m185.6 89.6c-28.8 25.6-105.6 67.2-112 89.6 0 3.2 0 3.2-3.2 6.4 6.4 0 12.8 3.2 12.8 9.6 0 6.4-6.4 9.6-12.8 9.6 3.2 19.2 22.4 28.8 41.6 92.8-80 22.4-76.8 6.4-137.6-22.4-44.8-9.6-41.6 48-96 22.4 28.8-57.6 51.2-70.4 57.6-89.6-6.4 0-12.8-3.2-12.8-9.6s6.4-9.6 12.8-9.6v-3.2c-6.4-22.4-83.2-64-115.2-92.8-70.4-64-214.4-412.8 44.8-422.4 121.6-3.2 137.6-3.2 137.6-3.2s16 0 137.6 3.2c259.2 6.4 115.2 355.2 44.8 419.2m-67.2-246.4c0-12.8-6.4-25.6-16-38.4-9.6-12.8-22.4-19.2-38.4-25.6-3.2 0-9.6-3.2-12.8-3.2l-3.2-25.6c0-6.4-9.6-12.8-16-12.8-9.6 0-16 6.4-16 12.8v19.2h-25.6v-19.2c0-6.4-6.4-12.8-16-12.8s-16 6.4-16 12.8l-3.2 25.6c-9.6 3.2-19.2 6.4-28.8 12.8-19.2 12.8-32 35.2-38.4 57.6 0 9.6 6.4 19.2 19.2 19.2 12.8 0 22.4-9.6 22.4-22.4 3.2-16 9.6-25.6 22.4-32l-6.4 76.8c-6.4 3.2-12.8 6.4-19.2 6.4-12.8 6.4-22.4 16-28.8 25.6-6.4 9.6-9.6 22.4-9.6 35.2 0 12.8 3.2 22.4 9.6 32 6.4 9.6 12.8 19.2 22.4 25.6 6.4 3.2 16 9.6 25.6 12.8l3.2 28.8c0 6.4 9.6 12.8 19.2 12.8s19.2-6.4 16-12.8v-22.4h25.6v22.4c0 6.4 6.4 12.8 16 12.8s19.2-6.4 19.2-12.8l3.2-28.8h3.2c16-6.4 28.8-16 38.4-25.6 9.6-9.6 16-25.6 19.2-44.8 0-12.8-9.6-22.4-19.2-22.4-12.8 0-22.4 9.6-25.6 22.4-3.2 9.6-6.4 16-9.6 22.4l3.2-70.4c9.6-3.2 19.2-6.4 25.6-9.6 12.8-6.4 22.4-12.8 28.8-22.4 6.4-6.4 6.4-19.2 6.4-32m-57.6 12.8s-3.2 0-3.2 3.2l-3.2-51.2h3.2c9.6 6.4 16 16 19.2 25.6-3.2 9.6-6.4 16-16 22.4"  horiz-adv-x="1024" />

    
    <glyph glyph-name="waiweihetongshenhe" unicode="&#59027;" d="M294.4 704c-16 0-32-6.4-44.8-19.2-9.6-9.6-16-25.6-16-44.8v-512c0-35.2 25.6-64 60.8-64h454.4c16 0 32 6.4 44.8 19.2 12.8 12.8 19.2 28.8 19.2 44.8V643.2c0 35.2-28.8 60.8-60.8 60.8H294.4z m86.4-96h249.6c9.6 0 19.2-12.8 19.2-32s-9.6-32-19.2-32h-249.6c-9.6 0-19.2 12.8-19.2 32s9.6 32 19.2 32z m3.2-160h153.6c9.6 0 19.2-12.8 19.2-32s-9.6-32-19.2-32H384c-12.8 0-19.2 12.8-19.2 32-3.2 16 6.4 32 19.2 32z m83.2-224H384c-12.8 0-22.4 12.8-22.4 32s9.6 32 22.4 32h80c12.8 0 22.4-12.8 22.4-32 3.2-19.2-6.4-32-19.2-32z m259.2-128l-80 35.2-80-35.2 19.2 73.6-57.6 73.6H608l38.4 73.6 38.4-73.6h80l-57.6-73.6 19.2-73.6z m0 0"  horiz-adv-x="1024" />

    
    <glyph glyph-name="waiweihetongxinxiweihu" unicode="&#59028;" d="M796.8 83.2c-12.8-12.8-28.8-19.2-44.8-19.2H297.6c-35.2 0-60.8 28.8-60.8 64V640c0 16 6.4 32 19.2 44.8 9.6 12.8 25.6 19.2 41.6 19.2h454.4c35.2 0 60.8-28.8 60.8-60.8V128c0-19.2-6.4-35.2-16-44.8zM524.8 608c-124.8 0-224-99.2-224-224s99.2-224 224-224 224 99.2 224 224-99.2 224-224 224z m0-192c-35.2 0-64 28.8-64 64s28.8 64 64 64 64-28.8 64-64-28.8-64-64-64z m32-192h-64v160h64v-160z"  horiz-adv-x="1024" />

    
    <glyph glyph-name="weituodanfuhe" unicode="&#59029;" d="M762.42131685 606h-44.99999999V654h-104.99999999v-48h-207V654H300.42131686v-48H264.42131686c-27 0-51-21-51-48v-393c0-27 21-48 51-48h501.00000001c27 0 51 21 50.99999998 48v390c-3 27-24 51-54 51z m-128.99999999 24h63v-108h-63V630z m-156-213c0-6 3-12 3-18 0-27-18-54-48-63-36-12-75 9-87 42-9 27 0 54 24.00000001 72 9 9 21 12 36 15 33 6 63-15 71.99999999-48z m-156.00000001 213h63.00000001v-108h-63.00000001V630z m204.00000001-390c0-6-3-12-9-15-6-3-12-6-18-6-15-3-30-3-45-3h-117c-9 0-18 3-24 6-6 3-9 6-12 9 0 3-3 6-2.99999999 9 0 15 3 30 8.99999999 45 9 18 24 30 45.00000001 39 9 3 21 6 32.99999999 6h51c21 0 42-6 56.99999999-21 15-12 24-30 27-48 6-9 6-15 6.00000001-21z m192.00000001-15h-120.00000001v36h120.00000001v-36z m-1e-8 60h-119.99999999v36h120v-36z m0 57h-119.99999999v36h120v-36z m0 60h-119.99999999v36h120v-36z m0 0"  horiz-adv-x="1024" />

    
    <glyph glyph-name="weituodanluru" unicode="&#59030;" d="M532 641.17434895l184.32-153.6c10.24-6.82666667 23.89333333-6.82666667 34.13333333 3.41333336l30.72 34.13333331c30.72 37.54666667 23.89333333 88.74666667-10.24 119.46666669l-88.74666667 75.09333332c-13.65333333 13.65333333-34.13333333 20.48-54.61333333 20.48-27.30666667 0-51.2-10.24-64.85333333-30.72000001l-30.72-34.13333331c-10.24-13.65333333-10.24-27.30666667 0-34.13333335z m-78.50666667-515.41333332l245.75999999 300.37333333c6.82666667 10.24 6.82666667 23.89333333-3.41333332 34.13333335l-184.32 153.6c-10.24 6.82666667-23.89333333 6.82666667-34.13333333-3.41333335l-245.76-300.37333334c-3.41333333-3.41333333-3.41333333-10.24-6.82666667-13.65333332l-10.24000001-201.38666668v-13.65333332c0-13.65333333 10.24-23.89333333 23.89333333-23.89333335H805.06666666h-10.23999999c13.65333333 0 34.13333333 20.48 34.13333332 34.13333336s-20.48 34.13333333-34.13333332 34.13333332c0 0-344.74666667-3.41333333-341.33333335 0z"  horiz-adv-x="1024" />

    
    <glyph glyph-name="weituoguanli" unicode="&#59032;" d="M812.8 479.22131687c-73.6 22.4-134.4 64-160 76.79999999-35.2 19.2-54.4 3.2-137.6-16-83.2-19.2-118.4-22.4-118.4-22.4-12.8-22.4 3.2-60.8 32-70.40000001 25.6-9.6 128 0 153.6 6.40000001 12.8 3.2 12.8-16 0-32-16-19.2-57.6-35.2-86.4-44.8-44.8-16-105.6 6.4-105.6 6.4S300.8 434.42131687 243.2 450.42131687C185.6 466.42131686 192 408.82131687 192 408.82131687s105.6-76.8 137.6-99.20000001c32-19.2 83.2-73.6 128-70.40000001 44.8 3.2 204.8 51.2 240 44.80000001 16-3.2 41.6-9.6 64-16.00000001H771.2c6.4 0 12.8 3.2 16 9.60000001 0 3.2 0 3.2 3.2 6.4 16 38.4 32 118.4 41.6 160.00000001 0 16-6.4 32-19.2 35.2z"  horiz-adv-x="1024" />

    
    <glyph glyph-name="xiangmuquanxianpeizhi" unicode="&#59035;" d="M723.62666667 155.30666667000003c-61.44-51.2-201.38666667-109.22666667-208.21333334-112.64H512c-6.82666667 3.41333333-146.77333333 61.44-208.21333333 112.64C256 192.85333333000005 204.8 250.88 204.8 271.36V599.04c0 17.06666667 13.65333333 30.72 34.13333333 34.13333333L515.41333333 725.33333333l273.06666667-92.16c17.06666667-3.41333333 34.13333333-17.06666667 30.72-34.13333333v-327.68c0-20.48-51.2-78.50666667-95.57333333-116.05333333zM512 657.06666667c-75.09333333 0-136.53333333-61.44-136.53333333-139.94666667 0-68.26666667 47.78666667-122.88 109.22666666-136.53333333v-242.34666667c0-13.65333333 13.65333333-27.30666667 27.30666667-27.30666667s27.30666667 13.65333333 27.30666667 27.30666667v122.88h81.92c13.65333333 0 27.30666667 13.65333333 27.30666666 27.30666667s-13.65333333 27.30666667-27.30666666 27.30666666h-81.92v64.85333334c61.44 13.65333333 109.22666667 68.26666667 109.22666666 136.53333333C648.53333333 592.2133333300001 587.09333333 657.06666667 512 657.06666667z m0-228.69333334c-47.78666667 0-88.74666667 40.96-88.74666667 88.74666667s40.96 88.74666667 88.74666667 88.74666667c47.78666667 0 88.74666667-40.96 88.74666667-88.74666667s-40.96-88.74666667-88.74666667-88.74666667z"  horiz-adv-x="1024" />

    
    <glyph glyph-name="xinjianwaiweihetong" unicode="&#59036;" d="M611 84H257c-18 0-33 15-33 36V507L389 684h249c21 3 36-15 33-33V414h-60V624h-210v-120h-120v-360h330v-60z m210 180h-120v120h-60v-120h-120v-60h120v-120h60v120h120v60z"  horiz-adv-x="1024" />

    
    <glyph glyph-name="yangpinchuli" unicode="&#59037;" d="M825.6 446.31607132c-6.4-6.4-16-9.6-25.6-3.19999999v-307.20000001s-32-32-48-32c-12.8 0-38.4-6.4-48 32v159.99999999c0 32 3.2 64 6.4 92.80000002L438.4 113.51607133000005c-28.8-28.8-64-41.6-102.4-41.60000001-35.2 0-73.6 12.8-102.4 41.60000001-57.6 57.6-57.6 147.2 0 201.6L579.2 660.71607133l-9.6 9.59999999c-9.6 9.6-9.6 22.4 0 32.00000001 9.6 9.6 22.4 9.6 32 0l224-224.00000002c9.6-6.4 9.6-22.4 0-31.99999999z m-211.2 182.4l-188.8-188.80000001-38.4-38.39999998h268.8l89.6 92.79999999-131.2 134.4z m19.2-182.4c-9.6 0-19.2 6.4-19.2 19.20000001 0 9.6 6.4 19.2 19.2 19.19999999 9.6 0 19.2-6.4 19.2-19.19999999-3.2-12.8-9.6-19.2-19.2-19.20000001z m-19.2 57.6c-12.8 0-22.4 9.6-22.4 22.39999999 0 12.8 9.6 22.4 22.4 22.40000001 12.8 0 22.4-9.6 22.4-22.40000001 0-12.8-9.6-22.4-22.4-22.39999999z m-60.8-95.99999999c-19.2 0-35.2 16-35.2 35.2 0 19.2 16 35.2 35.2 35.19999998 19.2 0 35.2-16 35.2-35.19999998 0-19.2-16-35.2-35.2-35.2z"  horiz-adv-x="1024" />

    
    <glyph glyph-name="yangpinguihuan" unicode="&#59038;" d="M813.42131686 442.42131686c-9-9-21-9-30 0l-8.99999999 9L447.42131687 130.42131687000006c-27-27-60-39-96-39.00000001-33 0-66 12-93 39.00000001-54 54-54 138 0 189L582.42131688 643.42131687l-9.00000003 8.99999999c-9 9-9 21 0 30.00000001 9 9 21 9 30.00000002 0l209.99999999-210.00000002c6-6 6-21 1e-8-29.99999999z m-200.99999999 171l-177.00000001-177.00000001-33.00000001-35.99999998h252l84.00000002 86.99999999-126 126z m20.99999999-173.99999999c-9 0-18 6-18 17.99999999 0 9 6 18 18 18.00000001 9 0 18-6 18-18.00000001-3-9-9-18-18-17.99999999z m-20.99999999 56.99999999c-12 0-21 9-21.00000002 20.99999999s9 21 21.00000002 21.00000001 21-9 20.99999999-21.00000001-9-21-20.99999999-20.99999999z m-54.00000001-89.99999999c-18 0-33 15-33 33 0 18 15 33 33 32.99999998 18 0 33-15 32.99999999-32.99999998 0-18-15-33-32.99999999-33z"  horiz-adv-x="1024" />

    
    <glyph glyph-name="yangpinliuyang" unicode="&#59039;" d="M682.66666667 37.45714275c-61.44 0-133.12 44.37333333-133.12 102.4V559.69714274s3.41333333 27.30666667 23.89333333 27.30666667h225.28c20.48 0 23.89333333-27.30666667 23.89333333-27.30666667v-416.42666667c-3.41333333-61.44-78.50666667-105.81333333-139.94666666-105.81333332z m34.13333333 477.86666665h-68.26666667c-13.65333333 0-34.13333333-20.48-34.13333333-34.13333332v-238.93333334h136.53333333v238.93333334c0 13.65333333-20.48 34.13333333-34.13333333 34.13333332z m-375.46666667-477.86666665c-61.44 0-136.53333333 40.96-136.53333333 102.4V692.81714274s3.41333333 27.30666667 23.89333333 27.30666666h228.69333334c20.48 0 23.89333333-27.30666667 23.89333333-27.30666666v-552.95999999c-3.41333333-61.44-78.50666667-102.4-139.94666667-102.4z m68.26666667 580.26666666c0 13.65333333-20.48 34.13333333-34.13333333 34.13333333h-68.26666667c-20.48-17.06666667-34.13333333-20.48-34.13333333-34.13333333v-136.53333333h136.53333333v136.53333333z"  horiz-adv-x="1024" />

    
    <glyph glyph-name="yangpinlingqu" unicode="&#59040;" d="M772.85142823 94.04571452000005c-30.72-34.13333333-75.09333333-51.2-122.88-51.20000002s-92.16 20.48-122.88 51.20000002c-30.72 34.13333333-51.2 78.50666667-51.19999999 126.29333331 0 47.78666667 20.48 95.57333333 51.19999999 126.29333335 30.72 30.72 75.09333333 51.2 122.88 51.2s92.16-20.48 122.87999999-51.2c30.72-34.13333333 51.2-78.50666667 51.20000001-126.29333335 0-47.78666667-20.48-92.16-51.2-126.29333331z m-3.41333333 184.32c-6.82666667 13.65333333-17.06666667 27.30666667-27.30666667 40.95999998-10.24 10.24-23.89333333 20.48-40.96 27.30666668-17.06666667 6.82666667-34.13333333 10.24-54.61333334 10.24000001-23.89333333 0-47.78666667-6.82666667-68.26666666-17.06666666-10.24-6.82666667-20.48-13.65333333-27.30666666-23.89333334-10.24-10.24-20.48-27.30666667-27.30666667-40.96000001-6.82666667-17.06666667-13.65333333-37.54666667-13.65333334-58.02666665 0-20.48 3.41333333-44.37333333 13.65333334-61.44 6.82666667-13.65333333 13.65333333-23.89333333 23.89333333-34.13333335 10.24-10.24 23.89333333-20.48 37.54666667-27.30666666 17.06666667-10.24 37.54666667-13.65333333 58.02666667-13.65333334 17.06666667 0 30.72 3.41333333 44.37333333 6.82666666 20.48 6.82666667 37.54666667 17.06666667 51.19999999 34.13333334 10.24 10.24 17.06666667 20.48 23.89333334 34.13333335 10.24 20.48 13.65333333 40.96 13.65333334 64.8533333 6.82666667 20.48 3.41333333 40.96-6.82666667 58.02666669z m-37.54666667-95.57333334H670.45142823V141.83238117999997c0-17.06666667-13.65333333-30.72-30.72000001-30.72000001s-30.72 13.65333333-30.71999999 30.72000001v40.96h-47.78666666c-17.06666667 0-30.72 13.65333333-30.72000001 30.72s13.65333333 30.72 30.72000001 30.71999999h47.78666666v68.26666666c0 17.06666667 13.65333333 30.72 30.71999999 30.72000001s30.72-13.65333333 30.72000001-30.72000001v-61.43999999h61.43999999c17.06666667 0 30.72-13.65333333 30.72000001-30.72000001 3.41333333-20.48-10.24-37.54666667-30.72000001-37.54666665z m-85.33333334 320.85333332h-51.19999999v-58.02666666c-13.65333333-3.41333333-27.30666667-6.82666667-37.54666667-13.65333332-6.82666667-3.41333333-13.65333333-6.82666667-23.89333333-13.65333333v85.33333331h-180.90666667v-269.65333332h68.26666667v-40.96h-71.68v-10.24c0-13.65333333 6.82666667-30.72 13.65333333-40.96 6.82666667-13.65333333 20.48-23.89333333 34.13333334-27.30666665 6.82666667-3.41333333 17.06666667-6.82666667 27.30666666-6.82666667h23.89333333c3.41333333-3.41333333 6.82666667-6.82666667 6.82666667-13.65333334 10.24-13.65333333 20.48-27.30666667 30.72-37.54666667l6.82666666-6.82666667c-10.24-3.41333333-23.89333333-6.82666667-34.13333332-6.82666668h-37.54666667c-27.30666667 0-54.61333333 10.24-75.09333334 27.30666668-20.48 13.65333333-37.54666667 37.54666667-47.78666665 61.44000001-6.82666667 17.06666667-13.65333333 34.13333333-13.65333335 54.61333333v320.85333333H243.78476156c-6.82666667 0-17.06666667 3.41333333-23.89333333 10.24000001-6.82666667 6.82666667-10.24 17.06666667-10.24 23.89333333V694.79238119c0 6.82666667 3.41333333 13.65333333 10.24 20.47999999 6.82666667 6.82666667 17.06666667 10.24 23.89333333 10.24000001h402.77333333c6.82666667 0 13.65333333-3.41333333 20.48000002-6.82666667 6.82666667-6.82666667 6.82666667-13.65333333 6.82666666-20.48000001v-157.01333332c0-10.24-3.41333333-17.06666667-6.82666666-23.89333333-3.41333333-6.82666667-10.24-13.65333333-20.48000002-13.65333336z m-34.13333333 157.01333335h-341.33333333v-92.16h184.32v44.37333332c0 10.24 10.24 20.48 20.48000001 20.48000002s20.48-10.24 20.47999998-20.48000002v-44.37333332h13.65333334v44.37333332c0 10.24 10.24 20.48 20.48 20.48000002s20.48-10.24 20.48000001-20.48000002v-44.37333332h13.65333333v44.37333332c0 10.24 10.24 20.48 20.48 20.48000002s20.48-10.24 20.48-20.48000002v-44.37333332h10.24V660.65904785z"  horiz-adv-x="1024" />

    
    <glyph glyph-name="yangpinguanli" unicode="&#59041;" d="M455.59047607 384l-23.89333333-37.54666667-20.48 20.48v-157.01333333h-40.96V349.86666667c-10.24-27.30666667-20.48-47.78666667-30.72-68.26666667-3.41333333 13.65333333-6.82666667 34.13333333-13.65333334 61.44 17.06666667 27.30666667 30.72 58.02666667 40.96 95.57333333h-34.13333332V486.4h37.54666666v61.44h40.96V486.4h30.72000001v-44.37333333h-30.72000001v-23.89333334c17.06666667-13.65333333 30.72-23.89333333 44.37333333-34.13333333z m197.97333335-58.02666667v-40.96h-85.33333334V213.33333332999996h-47.78666668v71.68h-85.33333333v40.96h85.33333333v40.96h-64.85333333v40.96h64.85333333v40.96h-71.67999999V486.4H496.55047607c-6.82666667 13.65333333-17.06666667 27.30666667-27.30666665 40.96l30.72 23.89333333c10.24-13.65333333 23.89333333-30.72 37.54666666-47.78666666l-20.48-17.06666667h40.96c13.65333333 20.48 23.89333333 44.37333333 34.13333334 61.44l40.95999999-17.06666667c-10.24-17.06666667-17.06666667-30.72-27.30666667-44.37333333h37.54666666v-40.96h-75.09333332v-40.96h68.26666666v-40.96h-68.26666666v-40.96h85.33333334z m211.62666665 98.98666667l-47.78666666-64.85333333c-3.41333333-6.82666667-10.24-10.24-17.06666667-10.24-3.41333333 0-10.24 0-17.06666666 3.41333333l-3.41333334 3.41333333-61.43999999 47.78666667c-13.65333333 10.24-13.65333333 27.30666667-6.82666668 40.96 10.24 13.65333333 27.30666667 13.65333333 37.54666667 6.82666667l10.24000001-10.24v3.41333333c-30.72 122.88-139.94666667 211.62666667-262.82666668 208.21333333-17.06666667 0-37.54666667-3.41333333-54.61333332-6.82666666-139.94666667-34.13333333-228.69333333-180.90666667-194.56-327.68 27.30666667-122.88 139.94666667-211.62666667 262.82666665-208.21333334 17.06666667 0 37.54666667 3.41333333 54.61333334 6.82666667 47.78666667 13.65333333 95.57333333 37.54666667 129.70666666 78.50666667l6.82666669 6.82666666c3.41333333 0 6.82666667 3.41333333 10.23999998 3.41333334 13.65333333 0 23.89333333-10.24 23.89333333-23.89333334 0-6.82666667 0-10.24-3.41333332-13.65333333v-3.41333333l-3.41333334-3.41333334c-40.96-44.37333333-95.57333333-78.50666667-153.59999999-92.16-20.48-6.82666667-44.37333333-6.82666667-64.85333335-10.24-146.77333333-3.41333333-279.89333333 98.98666667-314.02666666 249.17333334C155.21714275 482.98666667 261.03047607 657.06666667 428.28380941 698.0266666699999c20.48 6.82666667 44.37333333 6.82666667 64.85333333 10.24 146.77333333 3.41333333 279.89333333-98.98666667 314.02666668-249.17333334 0-3.41333333 3.41333333-10.24 3.41333333-13.65333333l10.23999999 13.65333333c10.24 13.65333333 27.30666667 13.65333333 37.54666666 6.82666667 13.65333333-10.24 13.65333333-27.30666667 6.82666667-40.96z"  horiz-adv-x="1024" />

    
    <glyph glyph-name="zidianguanli" unicode="&#59042;" d="M816 460.8v92.8c0 12.8-6.4 22.4-12.8 32-9.6 9.6-19.2 12.8-32 12.8v22.4c0 38.4-32 67.2-70.4 67.2H310.4c-19.2 0-35.2-6.4-51.2-19.2-12.8-12.8-19.2-32-19.2-48v-502.4c0-38.4 32-67.2 70.4-67.2H768c12.8 0 25.6 6.4 32 12.8 9.6 9.6 12.8 19.2 12.8 32v92.8c0 12.8-6.4 22.4-12.8 32-9.6 9.6-19.2 12.8-32 12.8 12.8 0 25.6 6.4 32 12.8 9.6 9.6 12.8 19.2 12.8 32v92.8c0 12.8-6.4 22.4-12.8 32-9.6 9.6-19.2 12.8-32 12.8 12.8 0 25.6 6.4 32 12.8 9.6 6.4 16 19.2 16 32z m-160-156.8h-288v64h288v-64z m0 96h-288v64h288v-64z m0 96h-288v64h288v-64z"  horiz-adv-x="1024" />

    
    <glyph glyph-name="zixiaoyantaizhang" unicode="&#59043;" d="M662.4 688H336c-102.4 0-92.8-22.4-92.8-118.4h3.2-3.2c-25.6 0-35.2-22.4-35.2-48s6.4-48 35.2-48v-60.8c-25.6 0-35.2-22.4-35.2-48s6.4-48 35.2-48V256c-25.6 0-35.2-22.4-35.2-48s3.2-54.4 28.8-54.4h6.4c0-83.2-12.8-99.2 92.8-99.2h326.4c89.6 0 121.6 22.4 121.6 105.6V576c0 92.8-28.8 112-121.6 112z m-38.4-512h-192c-19.2 0-32 12.8-32 32s12.8 32 32 32h192c19.2 0 32-12.8 32-32s-12.8-32-32-32z m0 128h-192c-19.2 0-32 12.8-32 32s12.8 32 32 32h192c19.2 0 32-12.8 32-32s-12.8-32-32-32z m0 128h-192c-19.2 0-32 12.8-32 32s12.8 32 32 32h192c19.2 0 32-12.8 32-32s-12.8-32-32-32z"  horiz-adv-x="1024" />

    
    <glyph glyph-name="appbanbenguanli" unicode="&#59044;" d="M614.4 604.8c-99.2 41.6-217.6 16-294.4-60.8s-102.4-195.2-57.6-297.6c41.6-102.4 140.8-166.4 252.8-166.4 150.4 0 272 121.6 272 272-3.2 108.8-70.4 208-172.8 252.8z m25.6-240c-3.2-12.8-12.8-19.2-22.4-22.4-12.8-3.2-22.4 0-32 9.6L544 384v-176c0-19.2-16-32-32-32-19.2 0-32 16-32 32V384l-38.4-35.2c-12.8-12.8-35.2-12.8-48 0s-12.8 32 0 44.8l96 92.8c12.8 12.8 35.2 12.8 48 0l96-92.8c6.4-6.4 9.6-19.2 6.4-28.8z"  horiz-adv-x="1024" />

    
    <glyph glyph-name="appguanli" unicode="&#59045;" d="M560 688h-64c-140.8 0-256-115.2-256-256v-128c0-140.8 115.2-256 256-256h64c140.8 0 256 115.2 256 256v128c0 140.8-115.2 256-256 256z m108.8-380.8s22.4-80 22.4-99.2h-70.4c-9.6 73.6-32 96-32 96-70.4-9.6-105.6-16-160-32v64c-9.6-32-6.4-73.6 0-128h-86.4c-3.2 57.6 6.4 105.6 25.6 144 22.4 51.2 44.8 89.6 70.4 118.4 32 38.4 60.8 57.6 92.8 57.6 38.4-3.2 70.4-41.6 102.4-112 0 0 3.2-3.2 3.2-6.4s3.2-9.6 3.2-12.8c0 0 3.2-3.2 3.2-6.4 3.2-12.8 9.6-12.8 12.8-22.4h32l32-32c0-9.6-51.2-28.8-51.2-28.8z m-76.8 60.8s3.2 28.8 0 32c-19.2 41.6-48 67.2-64 64-48-9.6-80-73.6-96-128 80 44.8 160 32 160 32z"  horiz-adv-x="1024" />

    
    <glyph glyph-name="zuzhirenyuanguanli" unicode="&#59046;" d="M492.8 150.39999999999998s-89.6 128 35.2 198.4c12.8 9.6 0 22.4-57.6 44.8h19.2c25.6 3.2 57.6 9.6 76.8 25.6l9.6 6.4a147.2 147.2 0 0 1 54.4 115.2c0 80-64 147.2-144 147.2-73.6 0-137.6-67.2-137.6-147.2 0-44.8 19.2-86.4 54.4-115.2l9.6-6.4-9.6-3.2c-92.8-38.4-153.6-128-153.6-230.4 0-19.2 6.4-35.2 19.2-51.2 12.8-12.8 32-19.2 48-19.2h182.4c6.4 0 16 6.4 16 19.2-6.4 9.6-16 16-22.4 16z m316.8 124.8c-3.2 12.8-9.6 19.2-19.2 19.2h-3.2c-19.2 0-32 16-32 35.2 0 3.2 3.2 12.8 3.2 12.8 3.2 12.8 0 25.6-9.6 32l-38.4 22.4h-9.6c-6.4 0-16-3.2-19.2-9.6-3.2-3.2-16-16-25.6-16s-22.4 12.8-28.8 16c-3.2 3.2-9.6 9.6-19.2 9.6-3.2 0-6.4 0-9.6-3.2l-41.6-22.4c-9.6-6.4-12.8-19.2-9.6-32 0 0 3.2-6.4 3.2-12.8 0-9.6-3.2-19.2-9.6-25.6-6.4-6.4-16-9.6-22.4-9.6h-3.2c-9.6 0-16-9.6-19.2-19.2 0-3.2-3.2-19.2-3.2-35.2 0-12.8 3.2-32 3.2-35.2 3.2-12.8 9.6-19.2 19.2-19.2h3.2c19.2 0 32-16 32-35.2 0-3.2-3.2-12.8-3.2-12.8-3.2-12.8 0-25.6 9.6-32l38.4-22.4c3.2 3.2 6.4 3.2 9.6 3.2 6.4 0 16 3.2 19.2 9.6 3.2 3.2 16 19.2 28.8 19.2 9.6 0 22.4-12.8 28.8-19.2 3.2-3.2 9.6-9.6 19.2-9.6 3.2 0 6.4 0 9.6 3.2l38.4 22.4c9.6 6.4 12.8 19.2 9.6 32 0 0-3.2 6.4-3.2 12.8 0 19.2 16 35.2 32 35.2h3.2c9.6 0 16 9.6 19.2 19.2 0 0 3.2 19.2 3.2 35.2 0 12.8-3.2 28.8-3.2 32z m-166.4-99.2c-25.6 3.2-48 25.6-51.2 51.2-9.6 44.8 28.8 83.2 73.6 73.6 25.6-3.2 48-25.6 51.2-51.2 12.8-41.6-28.8-83.2-73.6-73.6z"  horiz-adv-x="1024" />

    
    <glyph glyph-name="restapi" unicode="&#59047;" d="M649.6 412.8c-9.6 3.2-12.8 9.6-9.6 16 0 6.4 3.2 12.8 9.6 16 0 0 6.4 3.2 12.8 9.6 6.4 6.4 16 12.8 28.8 22.4-19.2 22.4-44.8 41.6-70.4 54.4-28.8 12.8-57.6 19.2-89.6 19.2-28.8 0-57.6-6.4-83.2-16s-48-25.6-67.2-44.8c-19.2-19.2-35.2-41.6-44.8-67.2-9.6-25.6-16-54.4-16-83.2s6.4-57.6 16-83.2 25.6-48 44.8-67.2c19.2-19.2 41.6-35.2 67.2-44.8s54.4-16 83.2-16c25.6 0 48 3.2 70.4 12.8 22.4 6.4 41.6 19.2 60.8 32s35.2 32 48 51.2 22.4 41.6 28.8 64c3.2 9.6 9.6 19.2 19.2 25.6 9.6 6.4 19.2 9.6 32 9.6 16 0 28.8-6.4 38.4-16 9.6-9.6 16-22.4 16-38.4 0-6.4 0-12.8-3.2-19.2-9.6-32-25.6-64-44.8-92.8s-41.6-51.2-70.4-73.6c-25.6-19.2-57.6-35.2-89.6-48s-67.2-16-102.4-16c-44.8 0-86.4 9.6-124.8 25.6s-73.6 38.4-102.4 67.2-51.2 64-67.2 102.4-25.6 80-25.6 124.8 9.6 86.4 25.6 124.8 38.4 73.6 67.2 102.4 64 51.2 102.4 67.2c38.4 16 80 25.6 124.8 25.6 48 0 96-9.6 137.6-28.8 41.6-19.2 76.8-48 105.6-83.2 9.6 9.6 19.2 16 28.8 22.4 6.4 6.4 12.8 9.6 12.8 9.6 3.2 3.2 6.4 3.2 9.6 6.4h9.6c3.2 0 6.4-3.2 6.4-6.4 3.2-3.2 3.2-9.6 3.2-16v-140.8c0-16-3.2-28.8-12.8-35.2-3.2-3.2-9.6-6.4-16-6.4s-16 0-25.6 3.2c-12.8 3.2-25.6 6.4-41.6 9.6s-28.8 6.4-44.8 9.6l-38.4 9.6c-9.6-3.2-16 0-19.2 0z"  horiz-adv-x="1024" />

    
    <glyph glyph-name="urlguanli" unicode="&#59048;" d="M848 220.79999999999995l-204.8 204.8-86.4-44.8-25.6 25.6 44.8 86.4-195.2 195.2-172.8-172.8 192-192 86.4 41.6 25.6-25.6-44.8-86.4 204.8-204.8 176 172.8zM416 390.4L323.2 480l89.6 89.6 89.6-86.4-19.2-35.2-32 32-35.2-38.4 32-32-32-19.2z m224-227.2L550.4 256l12.8 38.4 35.2-35.2 38.4 38.4-35.2 35.2 38.4 12.8 89.6-89.6-89.6-92.8z"  horiz-adv-x="1024" />

    
    <glyph glyph-name="bumenguanli" unicode="&#59049;" d="M768 416h-224v128h96V704h-256v-160h96v-128H256v-192H224v-160h160v160h-64v128h160v-128h-32v-160h128v160h-32v128h160v-128h-64v-160h160v160h-32v192z"  horiz-adv-x="1024" />

    
    <glyph glyph-name="caidanguanli" unicode="&#59050;" d="M240 688h576v-128h-576v128z m0-512h576v-128h-576v128z m0 256h576v-128h-576v128z"  horiz-adv-x="1024" />

    
    <glyph glyph-name="baoyangweixiu" unicode="&#59051;" d="M528 720c-176 0-320-144-320-320s144-320 320-320 320 144 320 320-144 320-320 320z m-192-147.2l16 16h3.2l64-38.4 16-41.6 51.2-51.2v-3.2l-16-16h-3.2L416 489.6l-41.6 19.2-38.4 64c-3.2-3.2-3.2 0 0 0z m384-345.6l-22.4-22.4c-12.8-12.8-32-12.8-41.6 0L544 320v3.2l6.4 6.4h3.2l102.4-102.4c3.2-3.2 9.6-3.2 12.8 0s3.2 9.6 0 12.8l-102.4 102.4v3.2l12.8 12.8h3.2l102.4-102.4c3.2-3.2 9.6-3.2 12.8 0s3.2 9.6 0 12.8l-102.4 102.4v3.2l6.4 6.4h3.2l115.2-115.2c12.8-9.6 12.8-28.8 0-38.4z m28.8 275.2l-60.8-60.8c-3.2-3.2-3.2-3.2-6.4-3.2l-41.6 12.8h-3.2L480 294.4v-3.2l12.8-41.6c0-3.2 0-6.4-3.2-6.4l-64-64c-3.2-3.2-3.2-3.2-6.4-3.2l-35.2 9.6c-6.4 3.2-9.6 9.6-3.2 12.8l44.8 44.8v3.2l-6.4 22.4c-3.2 9.6-9.6 16-19.2 19.2l-22.4 6.4h-3.2l-44.8-44.8c-3.2-3.2-12.8-3.2-12.8 3.2L307.2 288c0 3.2 0 6.4 3.2 6.4l64 64c3.2 3.2 3.2 3.2 6.4 3.2l41.6-12.8h3.2l156.8 156.8v3.2l-12.8 41.6c0 3.2 0 3.2 3.2 6.4l60.8 60.8c3.2 3.2 6.4 3.2 9.6 3.2l35.2-9.6c6.4-3.2 9.6-9.6 3.2-12.8l-44.8-44.8v-3.2l6.4-22.4c3.2-9.6 9.6-16 19.2-19.2l22.4-6.4h3.2l44.8 44.8c3.2 3.2 12.8 3.2 12.8-3.2l9.6-35.2c-3.2 0-3.2-3.2-6.4-6.4z"  horiz-adv-x="1024" />

    
    <glyph glyph-name="gerenzhongxin" unicode="&#59052;" d="M656 688h-256c-89.6 0-160-70.4-160-160v-320c0-89.6 70.4-160 160-160h256c89.6 0 160 70.4 160 160v320c0 89.6-70.4 160-160 160z m16-512h-288c-9.6 0-19.2 9.6-16 22.4v3.2s6.4 35.2 16 44.8c19.2 19.2 102.4 19.2 105.6 54.4v32c-9.6 9.6-16 19.2-19.2 22.4s-6.4 16-9.6 28.8c-6.4 0-9.6 12.8-16 25.6-3.2 12.8 0 25.6 3.2 25.6-3.2 19.2-6.4 48 3.2 70.4 3.2 9.6-6.4 32 12.8 54.4 16-25.6 60.8 16 96-3.2 16-9.6 19.2-19.2 22.4-32 12.8-9.6 16-22.4 16-32 3.2-19.2 3.2-38.4 0-57.6 6.4-3.2 6.4-16 3.2-25.6-3.2-12.8-9.6-22.4-16-25.6-3.2-12.8-6.4-25.6-9.6-28.8-3.2-3.2-9.6-16-19.2-25.6v-28.8c3.2-35.2 89.6-32 105.6-54.4 6.4-6.4 12.8-28.8 16-48 12.8-9.6 3.2-22.4-6.4-22.4z"  horiz-adv-x="1024" />

    
    <glyph glyph-name="gongchengguanli" unicode="&#59053;" d="M528 688c-176 0-320-160-320-355.2V102.39999999999998c3.2-12.8 12.8-19.2 22.4-19.2 6.4 0 12.8 3.2 19.2 6.4l214.4 214.4h128l208-214.4c3.2-6.4 12.8-6.4 19.2-6.4h6.4c12.8 0 25.6 9.6 25.6 25.6v227.2c-3.2 192-147.2 352-323.2 352z m64-352h-128v32c0 48 22.4 80 64 80s64-35.2 64-80v-32z m105.6-70.4l-48 48v48c0 73.6-54.4 134.4-121.6 134.4s-121.6-60.8-121.6-134.4V320l-48-48v70.4c0 105.6 76.8 192 169.6 192s169.6-86.4 169.6-192v-76.8z m-201.6-185.6h64v64h-64v-64z m0 160h64v32h-64v-32z m0-64h64v32h-64v-32z"  horiz-adv-x="1024" />

    
    <glyph glyph-name="gongyingshangguanli" unicode="&#59054;" d="M208 576l320 144 320-144-320-144-320 144z m284.8-496l-284.8 140.8v284.8l284.8-140.8v-284.8z m355.2 140.8l-284.8-140.8v284.8l284.8 140.8v-284.8z"  horiz-adv-x="1024" />

    
    <glyph glyph-name="chengshixinxiweihu" unicode="&#59055;" d="M364.8 636.8c48 28.8 102.4 41.6 160 41.6s112-12.8 160-41.6 86.4-67.2 115.2-115.2 41.6-102.4 41.6-160-12.8-112-41.6-160-67.2-86.4-115.2-115.2-102.4-41.6-160-41.6-112 12.8-160 41.6-86.4 67.2-115.2 115.2-41.6 102.4-41.6 160 12.8 112 41.6 160S316.8 608 364.8 636.8z m275.2-172.8s-3.2 0-3.2-3.2c-3.2-3.2-3.2-3.2-6.4-3.2l3.2 3.2s0 3.2 3.2 3.2v3.2c3.2 3.2 6.4 3.2 9.6 6.4 3.2 3.2 12.8 3.2 22.4 6.4 9.6 3.2 16 0 22.4-3.2 0 0 0 3.2 3.2 6.4l6.4 6.4s3.2 0 6.4 3.2c3.2 0 6.4 3.2 6.4 3.2v9.6c-3.2 0-6.4 0-6.4 3.2s-3.2 6.4-3.2 9.6l-3.2-3.2c0 3.2 0 3.2-3.2 3.2H688c-3.2 0-6.4 3.2-6.4 3.2s-3.2 3.2-3.2 6.4v6.4l-3.2 3.2-3.2 3.2v6.4s0 3.2-3.2 3.2h-3.2s-3.2 0-3.2-3.2l-3.2-3.2s0-3.2-3.2-3.2h-3.2-3.2-3.2H636.8c3.2 0 3.2 3.2 0 3.2h-6.4c3.2 0 3.2 3.2 3.2 6.4s-3.2 3.2-3.2 6.4h3.2s0 3.2-3.2 3.2-3.2 3.2-6.4 3.2-3.2 3.2-6.4 3.2-6.4 3.2-12.8 3.2h-12.8c0-3.2-3.2-3.2-3.2-3.2s0-3.2 3.2-6.4v-6.4c0-3.2 0-3.2-3.2-6.4s-3.2-3.2-3.2-6.4 3.2-3.2 6.4-6.4 6.4-6.4 3.2-9.6c0-3.2-3.2-3.2-6.4-6.4s-6.4-3.2-6.4-6.4v-6.4c0-3.2 3.2-6.4 3.2-6.4v-6.4l-3.2-3.2h-3.2c-3.2 0-6.4 0-9.6 3.2-3.2 3.2-3.2 6.4-6.4 9.6-3.2 6.4-3.2 9.6-6.4 12.8-6.4 3.2-9.6 3.2-12.8 0 0 3.2-6.4 6.4-16 9.6-6.4 3.2-16 3.2-25.6 3.2v6.4c-3.2 3.2-3.2 6.4-6.4 6.4v6.4 6.4c0 3.2 3.2 6.4 6.4 9.6l3.2 3.2c0 3.2 3.2 3.2 3.2 6.4V576c9.6 0 16 0 22.4 3.2l6.4 6.4c3.2 3.2 3.2 6.4 3.2 6.4 3.2 3.2 3.2 3.2 6.4 3.2 0 0 3.2 0 6.4-3.2 3.2 0 3.2-3.2 6.4-3.2s6.4 0 6.4 3.2 0 6.4-3.2 9.6c3.2 0 3.2 3.2 0 6.4 0 3.2-3.2 3.2-3.2 3.2-3.2 0-6.4 0-12.8-3.2-3.2 0-3.2-3.2 0-3.2 0 0-3.2 0-3.2-3.2-3.2-3.2-3.2-6.4-6.4-6.4s-3.2 0-6.4 3.2c0 0 0 3.2-3.2 6.4 0 3.2-3.2 6.4-3.2 6.4-3.2 0-3.2-3.2-6.4-6.4 0 3.2 0 3.2-3.2 6.4s-6.4 3.2-9.6 3.2c6.4-6.4 3.2 0-3.2 3.2-3.2 0-6.4 3.2-9.6 3.2h-9.6c0-3.2-3.2-3.2-3.2-6.4 0 0 0-3.2 3.2-3.2l3.2-3.2H496c3.2-3.2 6.4-6.4 3.2-6.4h-3.2c-3.2 0-3.2 0-6.4-3.2h-3.2v-12.8s-3.2 3.2-3.2 6.4-3.2 6.4-3.2 6.4c3.2-3.2 0-3.2-9.6-3.2h-3.2-16c-3.2 0-3.2 0-6.4 3.2V608h3.2c0-3.2 0 0-3.2 0l-3.2 3.2c-12.8-3.2-25.6-9.6-38.4-16h6.4s3.2 0 6.4 3.2c3.2 0 3.2 3.2 3.2 3.2 9.6 3.2 16 6.4 16 3.2l3.2 3.2 9.6-9.6h-12.8c-6.4-3.2-9.6-3.2-9.6-6.4 3.2-3.2 3.2-6.4 3.2-6.4s-3.2 3.2-6.4 3.2c-3.2 3.2-3.2 3.2-6.4 3.2s-3.2 3.2-6.4 3.2h-9.6c-41.6-22.4-73.6-54.4-99.2-92.8 3.2-3.2 3.2-3.2 6.4-3.2 0 0 3.2 0 3.2-3.2v-3.2h6.4c3.2-3.2 3.2-6.4 0-6.4 0 0 6.4-3.2 19.2-12.8 6.4-3.2 9.6-6.4 9.6-9.6s0-6.4-3.2-6.4c0 0 0 3.2-3.2 3.2l-3.2 3.2v-6.4c0-3.2 3.2-6.4 3.2-6.4-3.2 0-3.2-3.2-3.2-6.4v-25.6c0-3.2 0-9.6 3.2-12.8 3.2-6.4 6.4-9.6 9.6-9.6-3.2 0 0-6.4 9.6-19.2 0-3.2 3.2-3.2 3.2-3.2s3.2-3.2 6.4-3.2 3.2-3.2 6.4-3.2 3.2-3.2 3.2-3.2 3.2-3.2 3.2-9.6c0-6.4 3.2-9.6 6.4-9.6 0 0 0-3.2 3.2-9.6 3.2-3.2 3.2-6.4 3.2-9.6 0-3.2 3.2-3.2 6.4-6.4s6.4-3.2 6.4-6.4v-6.4h3.2c0 6.4-3.2 12.8-9.6 25.6-3.2 6.4-6.4 9.6-6.4 12.8 0 0-3.2 3.2-3.2 6.4s0 6.4-3.2 6.4H396.8v-6.4c0-3.2 3.2-6.4 6.4-6.4 3.2-3.2 3.2-6.4 6.4-6.4 3.2-3.2 3.2-6.4 6.4-6.4s3.2-3.2 6.4-9.6c3.2-3.2 3.2-6.4 0-6.4 3.2 0 6.4 0 9.6-3.2s6.4-6.4 6.4-9.6c0-3.2 3.2-6.4 3.2-9.6 0-6.4 0-9.6 3.2-9.6 0-3.2 3.2-3.2 3.2-6.4 3.2-3.2 3.2-3.2 6.4-3.2s3.2-3.2 6.4-3.2 3.2-3.2 6.4-3.2c0 0 3.2-3.2 6.4-3.2 3.2-3.2 6.4-3.2 9.6-6.4 3.2 0 6.4-3.2 6.4-3.2h12.8c3.2 0 9.6 0 12.8-6.4l9.6-9.6c9.6-6.4 19.2-6.4 22.4-3.2v-3.2c0-3.2 3.2-3.2 3.2-6.4s3.2-3.2 3.2-6.4l3.2-3.2c0-3.2 3.2-3.2 6.4-6.4s6.4-3.2 6.4-6.4l3.2 3.2c0-3.2 0-6.4 3.2-9.6 3.2-3.2 6.4-3.2 6.4-3.2 3.2 0 6.4 6.4 6.4 12.8-9.6-3.2-16 0-19.2 6.4v3.2s0 3.2-3.2 3.2v6.4h6.4v6.4 6.4c0 3.2-3.2 6.4-3.2 9.6-3.2 3.2-3.2 6.4-6.4 6.4 0-3.2-3.2-3.2-6.4-3.2s-6.4 0-6.4 3.2v-6.4H544V256v9.6s0 3.2 3.2 6.4c0 3.2 3.2 3.2 3.2 6.4v6.4s0 3.2-3.2 3.2h-6.4c-6.4 0-9.6-3.2-9.6-9.6v-3.2c0-3.2 0-3.2-3.2-6.4l-3.2-3.2h-9.6c-3.2 0-9.6 0-9.6 3.2-3.2 3.2-6.4 6.4-9.6 12.8-16 0-16 3.2-16 9.6v9.6 9.6c0 3.2 0 6.4-3.2 9.6l3.2 3.2 3.2 3.2H492.8v3.2h25.6c3.2-3.2 6.4-3.2 9.6 0v3.2 6.4c0-6.4 6.4-9.6 12.8-3.2 0 0 3.2 0 6.4-3.2 3.2 0 6.4 0 6.4-3.2 0 0 3.2 0 3.2-3.2l3.2-3.2h3.2s3.2 0 3.2 3.2c3.2-3.2 3.2-6.4 6.4-9.6 3.2-9.6 6.4-16 6.4-19.2h3.2l3.2 3.2v6.4 19.2c-3.2 0-6.4 3.2-6.4 6.4v6.4c0 3.2 3.2 6.4 6.4 6.4h3.2c3.2 0 3.2 3.2 6.4 3.2s3.2 3.2 6.4 3.2c6.4 6.4 6.4 9.6 6.4 16 3.2 0 3.2 0 3.2 3.2H608s-3.2 0-3.2 3.2h-3.2c3.2 0 3.2 3.2 0 6.4l3.2 3.2c0 3.2 3.2 3.2 3.2 3.2 3.2-3.2 6.4-3.2 9.6 0 3.2 3.2 3.2 3.2 0 6.4 0 3.2 3.2 3.2 9.6 3.2 3.2 0 6.4 3.2 6.4 3.2h3.2v6.4 6.4s3.2 3.2 6.4 3.2 6.4 3.2 6.4 3.2l6.4 3.2v3.2c6.4 0 9.6 0 12.8 3.2s3.2 6.4-3.2 9.6v3.2c-3.2 0-3.2 3.2-6.4 3.2H668.8c3.2 3.2 3.2 6.4-3.2 6.4-12.8 19.2-19.2 16-25.6 12.8z m-67.2-364.8c57.6 9.6 105.6 35.2 147.2 80 0 0-3.2 0-6.4 3.2h-6.4c-6.4 3.2-9.6 3.2-9.6 3.2V192c0 3.2-3.2 3.2-3.2 3.2s-3.2 3.2-6.4 3.2-3.2 3.2-3.2 3.2l-3.2 3.2-3.2 3.2-3.2 3.2h-6.4-3.2-3.2-3.2c-6.4 3.2-9.6 6.4-16 9.6 0 0-3.2 0-3.2 3.2l-3.2 3.2h-3.2s-3.2 0-6.4-3.2c0 0-3.2-3.2-3.2-6.4v-6.4c-3.2 0-3.2 3.2 0 6.4s3.2 6.4 0 6.4l-3.2 3.2c-3.2 0-3.2 0-6.4-3.2 0 0-3.2-3.2-6.4-3.2s-3.2-3.2-3.2-3.2-3.2 0-3.2-3.2c-3.2 0-3.2-3.2-3.2-3.2s0-3.2-3.2-6.4c0-3.2 0-3.2-3.2-3.2 0 0-3.2 3.2-6.4 3.2s-3.2 0-3.2 3.2c0-3.2 0-6.4 3.2-16 0-6.4 0-12.8 3.2-16 3.2-9.6 0-16-6.4-19.2-6.4-6.4-12.8-12.8-12.8-16 0-6.4 0-9.6 6.4-9.6 0-3.2 0-6.4-3.2-9.6-3.2-3.2-3.2-6.4-3.2-9.6 3.2-9.6 3.2-9.6 3.2-12.8z"  horiz-adv-x="1024" />

    
    <glyph glyph-name="gongyingshangminglu" unicode="&#59056;" d="M787.2 720H361.6c-32 0-60.8-25.6-60.8-57.6v-3.2h-32c-32 0-60.8-22.4-60.8-51.2s28.8-51.2 60.8-51.2h35.2v-57.6H265.6c-32 0-57.6-22.4-57.6-51.2 0-28.8 25.6-51.2 57.6-51.2h35.2v-57.6H265.6c-32 0-57.6-22.4-57.6-51.2s25.6-51.2 57.6-51.2h35.2v-57.6H265.6c-32 0-57.6-22.4-57.6-51.2s25.6-51.2 57.6-51.2h35.2v-3.2c0-32 28.8-57.6 60.8-57.6h425.6c32 0 60.8 25.6 60.8 57.6V662.4c0 32-28.8 57.6-60.8 57.6zM352 102.39999999999998H288c-19.2 0-38.4 12.8-38.4 25.6 0 16 16 25.6 38.4 25.6h64c19.2 0 38.4-12.8 38.4-25.6-3.2-12.8-19.2-25.6-38.4-25.6z m0 160H288c-19.2 0-38.4 12.8-38.4 25.6s16 25.6 38.4 25.6h64c19.2 0 38.4-12.8 38.4-25.6s-19.2-25.6-38.4-25.6z m0 160H288c-19.2 0-38.4 12.8-38.4 25.6 0 16 16 25.6 38.4 25.6h64c19.2 0 38.4-12.8 38.4-25.6-3.2-16-19.2-25.6-38.4-25.6z m0 156.8H288c-19.2 0-35.2 12.8-35.2 28.8s16 25.6 38.4 25.6h64c19.2 0 38.4-12.8 38.4-25.6-6.4-16-22.4-28.8-41.6-28.8zM688 192c0-9.6-6.4-16-16-16h-3.2c-9.6 0-16 6.4-16 16h-128c0-9.6-6.4-16-16-16h-3.2c-9.6 0-16 6.4-16 16v3.2c-48 3.2-60.8 16-60.8 57.6 0 64 73.6 195.2 163.2 195.2s163.2-131.2 163.2-195.2c0-44.8-12.8-57.6-67.2-60.8z m92.8 176c-9.6-19.2-35.2-19.2-44.8 0-22.4 41.6-76.8 92.8-144 92.8s-115.2-48-144-92.8c-3.2-9.6-28.8-19.2-44.8 0-6.4 9.6-28.8 124.8 188.8 128 214.4 0 195.2-115.2 188.8-128z m-249.6-60.8c0-35.2 25.6-64 60.8-64 32 0 60.8 28.8 60.8 64s-25.6 64-60.8 64-60.8-28.8-60.8-64z"  horiz-adv-x="1024" />

    
    <glyph glyph-name="jiandingxiaozhunhecha" unicode="&#59057;" d="M825.6 240l-275.2-172.8c0-3.2-3.2-3.2-6.4-3.2h-6.4l-275.2 172.8c-6.4 6.4-6.4 9.6-6.4 16V691.2c0 6.4 6.4 12.8 12.8 12.8h550.4c6.4 0 12.8-6.4 12.8-12.8v-438.4c0-6.4-3.2-9.6-6.4-12.8z m-73.6 256c-3.2 3.2-6.4 6.4-12.8 9.6l-121.6 19.2-54.4 112c-3.2 9.6-22.4 9.6-25.6 0l-54.4-112-121.6-19.2c-6.4 0-9.6-3.2-12.8-9.6 0-6.4 0-12.8 3.2-16l86.4-86.4-22.4-121.6c0-3.2 0-9.6 6.4-12.8 3.2 0 6.4-3.2 9.6-3.2h9.6l108.8 57.6 108.8-57.6h16c3.2 3.2 6.4 6.4 6.4 12.8l-22.4 121.6 86.4 86.4c6.4 9.6 9.6 16 6.4 19.2z"  horiz-adv-x="1024" />

    
    <glyph glyph-name="gongyingshangpinggu" unicode="&#59058;" d="M560 249.60000000000002c-12.8 3.2-19.2 9.6-22.4 22.4-3.2 9.6 0 22.4 9.6 28.8 28.8 25.6 44.8 64 44.8 99.2 0 60.8-41.6 96-92.8 96s-92.8-35.2-92.8-96c0-38.4 16-73.6 41.6-99.2 9.6-6.4 12.8-19.2 9.6-28.8-3.2-9.6-12.8-19.2-22.4-22.4-86.4-16-128-57.6-128-89.6 0-38.4 76.8-48 192-48 118.4 0 192 9.6 192 48-3.2 32-44.8 76.8-131.2 89.6z m176-233.6H256c-25.6 0-48 22.4-48 48V595.2c0 28.8 6.4 60.8 32 60.8h64v-64h-32v-512h448v512h-32v64h64c25.6 0 32-32 32-60.8V64c0-25.6-22.4-48-48-48z m-275.2 704c-12.8 0-22.4-9.6-25.6-19.2l-9.6-19.2c-3.2-9.6-12.8-19.2-25.6-19.2h-25.6c-12.8 0-22.4-9.6-25.6-19.2l-9.6-60.8c0-3.2 0-9.6 3.2-12.8 3.2-3.2 6.4-6.4 12.8-6.4h288c6.4 0 9.6 3.2 12.8 6.4 3.2 3.2 3.2 9.6 3.2 12.8l-9.6 60.8c-3.2 9.6-12.8 19.2-25.6 19.2h-25.6c-12.8 0-22.4 9.6-25.6 19.2l-9.6 19.2c-3.2 9.6-12.8 19.2-25.6 19.2h-76.8z"  horiz-adv-x="1024" />

    
    <glyph glyph-name="jianxiaojihuabiao" unicode="&#59059;" d="M755.2 48H236.8c-16 0-28.8 12.8-28.8 28.8V598.4c0 16 12.8 28.8 28.8 28.8H288v-28.8c0-32 25.6-60.8 60.8-60.8 32 0 60.8 25.6 60.8 60.8v28.8h28.8v-28.8c0-32 25.6-60.8 60.8-60.8 32 0 60.8 25.6 60.8 60.8v28.8h28.8v-28.8c0-32 25.6-60.8 60.8-60.8 32 0 60.8 25.6 60.8 60.8v28.8h51.2c16 0 28.8-12.8 28.8-28.8v-521.6c-6.4-16-19.2-28.8-35.2-28.8z m-96 416H332.8c-16 0-28.8-12.8-28.8-32s12.8-32 28.8-32h329.6c16 0 28.8 12.8 28.8 32-3.2 19.2-16 32-32 32z m0-128H332.8c-16 0-28.8-12.8-28.8-32s12.8-32 28.8-32h329.6c16 0 28.8 12.8 28.8 32s-16 32-32 32z m6.4-128H326.4c-12.8 0-22.4-12.8-22.4-32s9.6-32 22.4-32h336c12.8 0 22.4 12.8 22.4 32s-6.4 32-19.2 32z m-19.2 358.4c-16 0-28.8 12.8-28.8 28.8v64c0 16 12.8 28.8 28.8 28.8s28.8-12.8 28.8-28.8v-60.8c0-16-12.8-32-28.8-32z m-150.4 0c-16 0-28.8 12.8-28.8 28.8v64c0 16 12.8 28.8 28.8 28.8s28.8-12.8 28.8-28.8v-60.8c0-16-12.8-32-28.8-32z m-150.4 0c-16 0-28.8 12.8-28.8 28.8v64c0 16 12.8 28.8 28.8 28.8s28.8-12.8 28.8-28.8v-60.8c3.2-16-9.6-32-28.8-32z"  horiz-adv-x="1024" />

    
    <glyph glyph-name="jianxiaozhengshudaoru" unicode="&#59060;" d="M521.6 256c3.2-3.2 9.6-3.2 12.8 0l147.2 108.8c9.6 6.4 9.6 35.2-25.6 35.2 0 0-22.4-3.2-32 0v224c0 3.2-6.4 25.6-9.6 28.8-3.2 3.2-3.2 3.2-6.4 3.2h-160c-6.4 0-16-25.6-16-32v-224h-32c-32 0-35.2-28.8-28.8-35.2l150.4-108.8z m166.4 240v-64c48-6.4 70.4-35.2 64-64v-128c0-54.4-9.6-64-64-64h-320c-54.4 0-57.6 6.4-64 64v128c6.4 67.2 64 64 64 64v64c-124.8 0-160-70.4-160-140.8v-124.8c0-83.2 67.2-153.6 150.4-153.6h339.2c83.2 0 150.4 67.2 150.4 153.6v124.8c0 70.4-44.8 140.8-160 140.8z"  horiz-adv-x="1024" />

    
    <glyph glyph-name="jiechu" unicode="&#59061;" d="M832 291.20000000000005c-73.6 19.2-131.2 57.6-160 67.2-35.2 16-54.4 3.2-137.6-16s-118.4-19.2-118.4-19.2c-12.8-19.2 3.2-54.4 32-60.8 25.6-9.6 128 0 153.6 6.4 12.8 3.2 12.8-12.8 0-28.8-16-16-57.6-28.8-86.4-38.4-44.8-12.8-105.6 6.4-105.6 6.4s-86.4 48-144 60.8-51.2-35.2-51.2-35.2S316.8 160 352 144c32-19.2 83.2-67.2 128-60.8 44.8 3.2 204.8 44.8 240 41.6 16-3.2 38.4-9.6 64-12.8H793.6c6.4 0 12.8 3.2 16 9.6 0 0 0 3.2 3.2 6.4 16 35.2 32 108.8 41.6 144-3.2 3.2-12.8 16-22.4 19.2zM300.8 572.8h265.6c22.4 0 41.6 19.2 41.6 41.6s-19.2 41.6-41.6 41.6H300.8c-22.4 0-41.6-19.2-41.6-41.6 0-22.4 19.2-41.6 41.6-41.6z m0-147.2h265.6c22.4 0 41.6 19.2 41.6 41.6s-19.2 41.6-41.6 41.6H300.8c-22.4 0-41.6-19.2-41.6-41.6 0-25.6 19.2-41.6 41.6-41.6z"  horiz-adv-x="1024" />

    
    <glyph glyph-name="jianxiaozhengshuqueren" unicode="&#59062;" d="M528 720c-176 0-320-144-320-320s144-320 320-320 320 144 320 320-144 320-320 320z m156.8-243.2c-51.2-67.2-99.2-134.4-150.4-201.6-9.6-12.8-35.2-25.6-51.2-12.8-35.2 25.6-73.6 51.2-108.8 73.6-16 12.8-25.6 28.8-12.8 48 9.6 16 35.2 22.4 51.2 12.8 35.2-25.6 80-54.4 80-54.4 41.6 57.6 83.2 115.2 128 169.6 25.6 38.4 92.8 3.2 64-35.2z"  horiz-adv-x="1024" />

    
    <glyph glyph-name="jiaoseguanli" unicode="&#59063;" d="M816 169.60000000000002v38.4l-32 6.4c-3.2 9.6-6.4 16-9.6 22.4l19.2 28.8-25.6 25.6-28.8-19.2c-6.4 3.2-16 6.4-22.4 9.6l-6.4 32H672l-6.4-32c-9.6-3.2-16-6.4-22.4-9.6l-28.8 19.2-25.6-25.6 19.2-28.8c-3.2-6.4-6.4-16-9.6-22.4l-32-6.4v-38.4l32-6.4c3.2-9.6 6.4-16 9.6-22.4l-19.2-28.8 25.6-25.6 28.8 19.2c6.4-3.2 16-6.4 22.4-9.6l6.4-32h38.4l6.4 32c9.6 3.2 16 6.4 22.4 9.6l28.8-19.2 25.6 25.6-19.2 28.8c3.2 6.4 6.4 16 9.6 22.4l32 6.4z m-124.8-25.6c-25.6 0-44.8 19.2-44.8 44.8s19.2 44.8 44.8 44.8 44.8-19.2 44.8-44.8c-3.2-25.6-22.4-44.8-44.8-44.8z m-38.4 188.8c6.4 6.4 44.8 73.6 44.8 73.6h-112c19.2 28.8 32 67.2 32 112v9.6c44.8 6.4 70.4 19.2 70.4 32s-32 25.6-80 35.2c0 12.8-32 105.6-70.4 105.6-16 0-28.8-9.6-38.4-22.4 0-6.4-6.4-12.8-16-12.8-6.4 0-16 6.4-16 12.8-6.4 12.8-22.4 25.6-38.4 25.6-38.4 0-70.4-86.4-80-108.8-41.6-6.4-67.2-19.2-67.2-32s28.8-25.6 70.4-32v-9.6c0-44.8 12.8-83.2 32-112H275.2l48-80c-35.2 0-83.2-51.2-83.2-92.8v-131.2c0-22.4 16-38.4 38.4-38.4h316.8c-83.2 76.8-54.4 220.8 57.6 265.6z m-198.4-240h-19.2l-32 252.8 70.4-64-19.2-188.8z m19.2 390.4c-3.2-41.6-25.6-48-35.2-48-25.6 0-35.2 35.2-35.2 48h-9.6v16h67.2v-6.4h44.8v6.4h67.2v-6.4h3.2v-6.4h-9.6s-6.4-48-35.2-48-35.2 48-35.2 48h-22.4v-3.2z m41.6-390.4l-19.2 188.8 70.4 64-32-252.8h-19.2z"  horiz-adv-x="1024" />

    
    <glyph glyph-name="kaifarenyuangongju" unicode="&#59064;" d="M528 720c-176 0-320-144-320-320s144-320 320-320 320 144 320 320-144 320-320 320z m153.6-240L608 345.6l-6.4-9.6-9.6-19.2c-3.2-6.4-6.4-16-16-19.2l-80-54.4c-3.2 0-6.4-3.2-9.6-3.2h-118.4v22.4h99.2l6.4 96c0 9.6 3.2 16 9.6 22.4l9.6 19.2 80 144c6.4 9.6 19.2 12.8 28.8 9.6l73.6-44.8c9.6-3.2 12.8-16 6.4-28.8z"  horiz-adv-x="1024" />

    
    <glyph glyph-name="kehuguanli" unicode="&#59065;" d="M528 416c89.6 0 160 70.4 160 160s-70.4 160-160 160-160-70.4-160-160 70.4-160 160-160z m51.2-3.2l-51.2-51.2-51.2 51.2c-153.6-25.6-268.8-156.8-268.8-316.8h640c0 160-115.2 291.2-268.8 316.8z m-51.2-272l-64 51.2 64 169.6 64-169.6-64-51.2z"  horiz-adv-x="1024" />

    
    <glyph glyph-name="liangzhisuyuanhechabiao" unicode="&#59066;" d="M528 188.79999999999995c-99.2 0-179.2 80-179.2 179.2s80 179.2 179.2 179.2 179.2-80 179.2-179.2c0-19.2-16-35.2-35.2-35.2s-35.2 16-35.2 35.2c0 57.6-48 105.6-105.6 105.6s-105.6-48-105.6-105.6 48-105.6 105.6-105.6c19.2 0 35.2-16 35.2-35.2-3.2-22.4-19.2-38.4-38.4-38.4z m0-140.8c-176 0-320 144-320 320s144 320 320 320 320-144 320-320c0-19.2-16-35.2-35.2-35.2s-35.2 16-35.2 35.2c0 115.2-80 214.4-192 243.2-112 25.6-227.2-28.8-278.4-131.2s-25.6-227.2 64-300.8 217.6-76.8 307.2-9.6l-172.8 172.8c-12.8 12.8-12.8 35.2 3.2 48 12.8 12.8 35.2 12.8 48 3.2l201.6-201.6c12.8-12.8 12.8-35.2 0-51.2-64-60.8-147.2-92.8-230.4-92.8z"  horiz-adv-x="1024" />

    
    <glyph glyph-name="liuchengsheji" unicode="&#59067;" d="M214.4 396.8c-3.2-3.2-6.4-9.6-6.4-16s3.2-9.6 6.4-16l112-112c3.2-3.2 9.6-6.4 16-6.4s12.8 3.2 16 6.4l118.4 112c3.2 3.2 6.4 9.6 6.4 16s-3.2 12.8-6.4 16l-118.4 112c-3.2 3.2-9.6 6.4-16 6.4s-9.6-3.2-16-6.4l-112-112z m633.6 268.8c0 6.4-3.2 9.6-6.4 16-3.2 3.2-9.6 6.4-16 6.4h-179.2c-6.4 0-9.6-3.2-16-6.4-3.2-3.2-6.4-9.6-6.4-16v-44.8h-99.2c-6.4 0-9.6-3.2-16-6.4-3.2-3.2-6.4-9.6-6.4-16V160c0-6.4 3.2-9.6 6.4-16 3.2-3.2 9.6-6.4 16-6.4h99.2v-64c0-6.4 3.2-9.6 6.4-16 3.2-3.2 9.6-6.4 16-6.4h179.2c6.4 0 9.6 3.2 16 6.4 3.2 3.2 6.4 9.6 6.4 16v144c0 6.4-3.2 9.6-6.4 16-3.2 3.2-9.6 6.4-16 6.4h-179.2c-6.4 0-9.6-3.2-16-6.4-3.2-3.2-6.4-9.6-6.4-16v-9.6h-44.8c-6.4 0-9.6 3.2-16 6.4-3.2 3.2-6.4 9.6-6.4 16V544c0 6.4 3.2 9.6 6.4 16 3.2 3.2 9.6 6.4 16 6.4h44.8v-44.8c0-6.4 3.2-9.6 6.4-16 3.2-3.2 9.6-6.4 16-6.4h179.2c6.4 0 9.6 3.2 16 6.4 3.2 3.2 6.4 9.6 6.4 16V665.6z"  horiz-adv-x="1024" />

    
    <glyph glyph-name="liuchengdingyi" unicode="&#59068;" d="M790.4 352v-19.2c19.2-3.2 38.4-16 51.2-28.8 22.4 140.8-57.6 281.6-192 329.6 3.2-9.6 3.2-16 3.2-25.6s-3.2-22.4-6.4-32c89.6-41.6 144-128 144-224z m-492.8-16V352c0 96 54.4 182.4 140.8 224-3.2 9.6-6.4 22.4-6.4 32s0 19.2 3.2 28.8c-118.4-44.8-195.2-160-195.2-284.8v-25.6c16 6.4 32 9.6 48 9.6h9.6z m83.2-172.8c-9.6-16-25.6-28.8-41.6-38.4 112-99.2 278.4-105.6 393.6-9.6-19.2 6.4-38.4 16-51.2 28.8-89.6-60.8-214.4-54.4-300.8 19.2z m-12.8 60.8c0 44.8-35.2 80-80 80S208 268.79999999999995 208 224c0-28.8 16-54.4 38.4-70.4 25.6-12.8 54.4-12.8 80 0 25.6 16 41.6 41.6 41.6 70.4z m176 304c44.8 0 80 35.2 80 80S588.8 688 544 688 464 652.8 464 608s35.2-80 80-80z m262.4-236.8c-25.6 12.8-54.4 12.8-80 0s-38.4-41.6-38.4-70.4 16-54.4 38.4-70.4c25.6-12.8 54.4-12.8 80 0s38.4 41.6 38.4 70.4-12.8 57.6-38.4 70.4z"  horiz-adv-x="1024" />

    
    <glyph glyph-name="liuchengguanli" unicode="&#59069;" d="M592 425.6c6.4 3.2 9.6 9.6 9.6 16s-3.2 12.8-9.6 16c-6.4 3.2-12.8 3.2-19.2 0s-9.6-9.6-9.6-16 3.2-12.8 9.6-16c6.4-3.2 12.8-3.2 19.2 0z m-188.8 147.2c-9.6 0-19.2-9.6-19.2-19.2s9.6-19.2 19.2-19.2 19.2 9.6 19.2 19.2c0 6.4-3.2 9.6-6.4 12.8-3.2 6.4-9.6 6.4-12.8 6.4z m70.4-262.4c6.4 0 12.8 3.2 16 12.8 3.2 6.4 0 16-3.2 19.2-6.4 6.4-12.8 6.4-19.2 3.2-6.4-3.2-9.6-9.6-9.6-16 0-9.6 6.4-19.2 16-19.2z m288 377.6H294.4c-28.8 0-54.4-25.6-54.4-57.6v-528c0-32 25.6-57.6 54.4-57.6H672v131.2c0 6.4 3.2 9.6 6.4 12.8s6.4 6.4 12.8 6.4h124.8V630.4c0 32-25.6 57.6-54.4 57.6z m-236.8-556.8c-3.2-6.4-9.6-9.6-16-9.6h-144c-6.4 0-12.8 3.2-16 9.6-3.2 6.4-3.2 12.8 0 19.2s9.6 9.6 16 9.6h144c6.4 0 12.8-3.2 16-9.6 3.2-6.4 3.2-12.8 0-19.2z m-176 86.4c0 6.4 3.2 9.6 6.4 12.8 3.2 3.2 6.4 6.4 12.8 6.4h73.6c9.6 0 16-9.6 16-19.2s-6.4-19.2-16-19.2h-73.6c-3.2 0-9.6 3.2-12.8 6.4-6.4 3.2-6.4 6.4-6.4 12.8z m38.4 150.4c6.4-12.8 19.2-19.2 32-19.2h3.2c6.4 22.4 28.8 38.4 51.2 38.4 22.4 0 41.6-16 51.2-38.4h121.6l-6.4 6.4c-3.2 3.2-6.4 12.8-3.2 19.2s6.4 12.8 12.8 12.8c6.4 3.2 12.8 0 16-6.4l35.2-38.4c6.4-6.4 6.4-19.2 0-25.6l-35.2-38.4c-3.2-3.2-9.6-6.4-16-6.4-6.4 3.2-9.6 6.4-12.8 12.8-3.2 6.4 0 12.8 3.2 19.2l6.4 6.4h-121.6c-6.4-22.4-28.8-38.4-51.2-38.4-22.4 0-41.6 16-51.2 38.4h-3.2c-38.4 0-73.6 32-73.6 73.6s32 73.6 73.6 73.6h112c6.4 22.4 28.8 38.4 51.2 38.4s44.8-16 51.2-38.4h3.2c12.8 0 25.6 6.4 32 19.2 6.4 12.8 6.4 25.6 0 38.4s-19.2 19.2-32 19.2h-182.4c-9.6-25.6-35.2-41.6-60.8-35.2-25.6 3.2-44.8 28.8-44.8 54.4 0 28.8 19.2 51.2 44.8 54.4 25.6 3.2 51.2-9.6 60.8-35.2h182.4c25.6 0 51.2-12.8 64-35.2 12.8-22.4 12.8-54.4 0-76.8s-38.4-38.4-64-35.2h-3.2c-6.4-22.4-28.8-38.4-51.2-38.4s-44.8 16-51.2 38.4h-112c-12.8 0-25.6-6.4-32-19.2-6.4-12.8-6.4-25.6 0-38.4z m320-310.4l96 102.4h-96v-102.4z"  horiz-adv-x="1024" />

    
    <glyph glyph-name="qijianhechataizhang" unicode="&#59070;" d="M451.2 512H790.4c60.8 0 60.8 0 57.6 73.6 0 16-3.2 22.4-19.2 22.4H451.2c-12.8 0-19.2-3.2-19.2-22.4v-51.2c0-16 6.4-22.4 19.2-22.4z m374.4-352H451.2c-12.8 0-19.2-6.4-19.2-22.4v-54.4c0-12.8 3.2-19.2 16-19.2h384c12.8 0 16 6.4 16 19.2v48c3.2 22.4-3.2 28.8-22.4 28.8z m-371.2 128h374.4c16 0 22.4 6.4 19.2 25.6v44.8c0 19.2-6.4 28.8-22.4 25.6H454.4c-16 0-25.6-6.4-22.4-25.6v-44.8c-3.2-19.2 3.2-25.6 22.4-25.6z m-89.6-44.8c-22.4-22.4-48-44.8-67.2-67.2-25.6-25.6-19.2-28.8-48-6.4-25.6 19.2-25.6 19.2-41.6-6.4 25.6-32 48-67.2 73.6-99.2 38.4 57.6 80 118.4 118.4 176-16 19.2-16 22.4-35.2 3.2z m32 409.6c-3.2 3.2-9.6 9.6-16 19.2-32-28.8-64-57.6-92.8-89.6-9.6-9.6-19.2-12.8-28.8-3.2-12.8 9.6-22.4 16-28.8 22.4-9.6-9.6-16-16-22.4-19.2 25.6-32 48-60.8 70.4-89.6 38.4 51.2 80 105.6 118.4 160zM211.2 316.79999999999995c9.6-12.8 16-19.2 25.6-32 12.8 12.8 25.6 25.6 35.2 38.4 9.6 9.6 19.2 12.8 28.8 0 12.8-12.8 22.4-25.6 35.2-38.4 9.6 9.6 19.2 19.2 32 28.8-16 12.8-25.6 25.6-41.6 35.2-12.8 9.6-9.6 19.2 0 28.8 12.8 12.8 25.6 25.6 38.4 35.2l-28.8 28.8c-9.6-9.6-19.2-22.4-28.8-32-12.8-16-25.6-19.2-38.4 0-9.6 12.8-19.2 25.6-25.6 32-12.8-9.6-22.4-19.2-32-28.8 12.8-12.8 25.6-22.4 38.4-35.2 12.8-9.6 12.8-19.2 0-32-16-3.2-28.8-16-38.4-28.8z"  horiz-adv-x="1024" />

    
    <glyph glyph-name="qijianhechajihua" unicode="&#59071;" d="M768 32H320c-35.2 0-64 28.8-64 64V608c0 35.2 28.8 64 64 64h288v-224h224v-352c0-35.2-28.8-64-64-64z m-192 480h-256v-64h256v64z m0-128h-256v-64h256v64z m0-128h-256v-64h256v64z m64 416l192-192h-192V672z"  horiz-adv-x="1024" />

    
    <glyph glyph-name="qijianhechadengji" unicode="&#59072;" d="M352 585.6c16 0 32 12.8 32 28.8V672c0 16-12.8 28.8-32 28.8-16 0-28.8-12.8-28.8-28.8v-57.6c0-16 12.8-28.8 28.8-28.8z m153.6 0c16 0 28.8 12.8 28.8 28.8V672c0 16-12.8 28.8-28.8 28.8s-28.8-12.8-28.8-28.8v-57.6c-3.2-16 12.8-28.8 28.8-28.8z m150.4 0c16 0 28.8 12.8 28.8 28.8V672c0 16-12.8 28.8-28.8 28.8s-28.8-12.8-28.8-28.8v-57.6c0-16 12.8-28.8 28.8-28.8z m19.2-240c-80 0-144-64-144-140.8 0-80 64-140.8 144-140.8s144 64 144 140.8c0 76.8-64 140.8-144 140.8z m92.8-112l-105.6-92.8c-3.2-3.2-3.2-3.2-6.4-3.2s-6.4 0-6.4 3.2l-67.2 67.2c-3.2 3.2-3.2 9.6 0 12.8 3.2 3.2 9.6 3.2 16 0l60.8-60.8 96 86.4c3.2 3.2 9.6 3.2 16 0 0 0 0-6.4-3.2-12.8zM316.8 176c-12.8 0-25.6 9.6-25.6 25.6 0 12.8 12.8 25.6 25.6 25.6H512c3.2 25.6 12.8 48 25.6 67.2h-214.4c-16 0-28.8 12.8-28.8 28.8s12.8 28.8 28.8 28.8h281.6c22.4 9.6 48 16 73.6 16 32 0 51.2-3.2 76.8-19.2v256c0 16 16 32 0 32h-32l-6.4-22.4c0-32-28.8-57.6-60.8-57.6s-60.8 25.6-60.8 57.6v22.4h-32v-32c0-32-25.6-51.2-57.6-51.2s-60.8 25.6-60.8 57.6v32h-32v-28.8c0-32-28.8-57.6-60.8-57.6s-60.8 25.6-60.8 57.6v28.8h-19.2c-16 0-28.8-12.8-28.8-28.8v-505.6c0-16 12.8-28.8 28.8-28.8h291.2c-28.8 25.6-48 57.6-54.4 96h-192z m6.4 300.8h364.8c16 0 28.8-12.8 28.8-28.8s-12.8-28.8-28.8-28.8H323.2c-16 0-28.8 12.8-28.8 28.8-3.2 19.2 12.8 28.8 28.8 28.8z"  horiz-adv-x="1024" />

    
    <glyph glyph-name="qiyexinxiguanli" unicode="&#59073;" d="M784 176v288c0 44.8-16 67.2-64 67.2h-128v-323.2c-3.2-25.6-19.2-32-32-32s-32 0-32 32l3.2 361.6c0 48-35.2 86.4-76.8 86.4h-115.2c-41.6 0-64-48-64-96v-384h-32c-12.8 0-32-19.2-32-32s9.6-32 22.4-32H832c12.8 0 22.4 19.2 22.4 32s-19.2 32-32 32h-38.4z m-342.4 64h-86.4c-12.8 0-22.4 6.4-22.4 16s9.6 16 22.4 16h86.4c12.8 0 22.4-6.4 22.4-16s-9.6-16-22.4-16z m0 128h-86.4c-12.8 0-22.4 6.4-22.4 16s9.6 16 22.4 16h86.4c12.8 0 22.4-6.4 22.4-16s-9.6-16-22.4-16z m0 128h-86.4c-12.8 0-22.4 6.4-22.4 16s9.6 16 22.4 16h86.4c12.8 0 22.4-6.4 22.4-16s-9.6-16-22.4-16z m288-256h-86.4c-12.8 0-22.4 6.4-22.4 16s9.6 16 22.4 16h86.4c12.8 0 22.4-6.4 22.4-16s-9.6-16-22.4-16z m0 128h-86.4c-12.8 0-22.4 6.4-22.4 16s9.6 16 22.4 16h86.4c12.8 0 22.4-6.4 22.4-16s-9.6-16-22.4-16z"  horiz-adv-x="1024" />

    
    <glyph glyph-name="qiyezizhi" unicode="&#59074;" d="M256 608c0 35.2 28.8 64 64 64h448c35.2 0 64-28.8 64-64v-512c0-35.2-28.8-64-64-64H320c-35.2 0-64 28.8-64 64V608z m288-352c57.6 0 108.8 32 137.6 80s28.8 112 0 160S601.6 576 544 576c-89.6 0-160-70.4-160-160s70.4-160 160-160z m0 64c-54.4 0-96 41.6-96 96s41.6 96 96 96 96-41.6 96-96-41.6-96-96-96z m-32-89.6c-51.2 12.8-96 44.8-121.6 89.6L320 201.60000000000002l22.4-12.8 64 35.2 22.4-12.8v-70.4l22.4-12.8 60.8 102.4z m64 0l60.8-102.4 22.4 12.8v70.4l22.4 12.8 64-35.2 22.4 12.8-70.4 118.4c-25.6-44.8-70.4-76.8-121.6-89.6z"  horiz-adv-x="1024" />

    
    <glyph glyph-name="shouye" unicode="&#59075;" d="M640 64h-64v156.8c0 28.8-16 54.4-41.6 64-44.8 12.8-86.4-19.2-86.4-60.8v-160h-64c-70.4 0-128 57.6-128 128v288h3.2L512 688l252.8-208h3.2v-288c0-70.4-57.6-128-128-128z"  horiz-adv-x="1024" />

    
    <glyph glyph-name="qiyeguanli" unicode="&#59076;" d="M774.4 656H275.2c-22.4 0-38.4-19.2-38.4-38.4v-150.4h28.8c22.4 0 38.4-19.2 38.4-38.4s-16-41.6-38.4-41.6h-28.8V288h28.8c22.4 0 38.4-19.2 38.4-38.4 0-22.4-19.2-38.4-38.4-38.4h-28.8v-150.4c0-22.4 19.2-38.4 38.4-38.4h499.2c22.4 0 38.4 19.2 38.4 38.4V614.4c3.2 22.4-16 41.6-38.4 41.6z m-240-556.8c-12.8 0-112 54.4-112 70.4s80 284.8 80 284.8l-64 80s-9.6 19.2 19.2 19.2h160c28.8 0 12.8-19.2 12.8-19.2l-60.8-80s80-272 80-284.8c0-12.8-102.4-70.4-115.2-70.4z m131.2 195.2l-22.4-32-57.6 185.6 80-131.2c3.2-6.4 3.2-16 0-22.4z"  horiz-adv-x="1024" />

    
    <glyph glyph-name="waijie" unicode="&#59077;" d="M864 291.20000000000005c-73.6 19.2-134.4 57.6-160 67.2-35.2 16-57.6 3.2-137.6-16-83.2-19.2-118.4-19.2-118.4-19.2-12.8-19.2 3.2-54.4 32-60.8 28.8-9.6 128 0 153.6 6.4 12.8 3.2 12.8-12.8 0-28.8-16-16-57.6-28.8-86.4-38.4-44.8-12.8-105.6 6.4-105.6 6.4s-86.4 48-144 60.8-51.2-35.2-51.2-35.2 105.6-70.4 137.6-89.6c32-19.2 83.2-67.2 128-60.8 44.8 3.2 204.8 44.8 240 41.6 16-3.2 41.6-9.6 64-12.8H825.6c6.4 0 12.8 3.2 16 9.6 0 0 0 3.2 3.2 6.4 16 35.2 35.2 108.8 41.6 144-3.2 3.2-12.8 16-22.4 19.2z m-403.2 76.8c76.8 0 140.8 64 140.8 144s-64 144-140.8 144S320 592 320 512s64-144 140.8-144z"  horiz-adv-x="1024" />

    
    <glyph glyph-name="weihushezhi" unicode="&#59078;" d="M544 512c-67.2 0-121.6-57.6-121.6-128s54.4-128 121.6-128 121.6 57.6 121.6 128-57.6 128-121.6 128z m-99.2 208c12.8 0 25.6-6.4 32-12.8 9.6-12.8 41.6-41.6 64-41.6 25.6 0 57.6 28.8 64 38.4 6.4 9.6 22.4 16 32 16 6.4 0 12.8 0 19.2-3.2l83.2-51.2c16-12.8 22.4-38.4 16-57.6 0 0-6.4-19.2-6.4-35.2 0-48 35.2-86.4 83.2-86.4h3.2c16 0 28.8-16 32-38.4 0 0 6.4-41.6 6.4-70.4 0-32-6.4-70.4-6.4-70.4-3.2-22.4-16-38.4-32-38.4H832c-44.8 0-83.2-38.4-83.2-86.4 0-16 6.4-35.2 6.4-35.2 6.4-19.2 0-41.6-16-54.4l-83.2-51.2c-3.2 0-9.6-3.2-16-3.2-12.8 0-28.8 6.4-35.2 16-9.6 12.8-41.6 41.6-67.2 41.6-22.4 0-54.4-28.8-64-41.6-6.4-9.6-19.2-16-32-16-6.4 0-12.8 0-19.2 3.2l-83.2 48c-16 12.8-22.4 38.4-16 57.6 0 0 6.4 19.2 6.4 35.2 0 48-35.2 86.4-83.2 86.4-16 0-28.8 16-32 38.4 0 0-6.4 41.6-6.4 70.4 0 28.8 6.4 67.2 6.4 70.4 3.2 22.4 16 38.4 32 38.4 44.8 0 83.2 38.4 83.2 86.4 0 16-6.4 35.2-6.4 35.2-6.4 19.2 0 41.6 16 54.4l86.4 51.2c6.4 6.4 12.8 6.4 19.2 6.4z"  horiz-adv-x="1024" />

    
    <glyph glyph-name="weibiaoti" unicode="&#59079;" d="M528 48c-176 0-320 144-320 320s144 320 320 320 320-144 320-320-144-320-320-320z m153.6 342.4c-16 16-35.2 25.6-57.6 32-22.4 6.4-44.8 6.4-67.2 0-19.2-6.4-38.4-16-54.4-32-19.2-19.2-51.2-22.4-76.8-9.6-3.2 3.2-9.6 6.4-12.8 9.6-25.6 25.6-25.6 64 0 89.6s64 25.6 89.6 0c3.2-3.2 6.4-9.6 9.6-12.8 22.4 6.4 44.8 6.4 67.2 0-6.4 19.2-16 41.6-32 57.6-48 48-128 48-176 0s-48-128 0-179.2c16-16 35.2-25.6 57.6-32s44.8-6.4 67.2 0c19.2 6.4 38.4 16 54.4 32 19.2 19.2 51.2 22.4 76.8 9.6 3.2-3.2 9.6-6.4 12.8-9.6 25.6-25.6 25.6-64 0-89.6s-64-25.6-89.6 0c-3.2 3.2-6.4 9.6-9.6 12.8-22.4-6.4-44.8-6.4-67.2 0 6.4-19.2 16-41.6 32-57.6 48-48 128-48 176 0 51.2 51.2 51.2 131.2 0 179.2z"  horiz-adv-x="1024" />

    
    <glyph glyph-name="qudaogongnengguanli" unicode="&#59080;" d="M720 144v64h64v-102.4c0-16-6.4-28.8-16-41.6s-25.6-19.2-41.6-19.2H329.6c-16 0-32 6.4-41.6 19.2-12.8 9.6-16 25.6-16 41.6v102.4h64v-64h384z m-300.8 131.2l-41.6-41.6-137.6 134.4 137.6 134.4 41.6-41.6-92.8-92.8 92.8-92.8z m259.2-41.6l-41.6 41.6 92.8 92.8-92.8 92.8 41.6 41.6 137.6-134.4-137.6-134.4zM336 592v-64h-64V630.4c0 16 6.4 28.8 16 41.6s25.6 19.2 41.6 19.2h396.8c16 0 28.8-6.4 41.6-16 12.8-12.8 16-25.6 16-41.6v-102.4h-64v64h-384v-3.2z"  horiz-adv-x="1024" />

    
    <glyph glyph-name="wodexinxi" unicode="&#59081;" d="M784 166.39999999999998c-32 35.2-182.4 32-188.8 89.6-3.2 12.8-3.2 35.2-3.2 48 16 16 32 35.2 35.2 41.6 3.2 6.4 12.8 25.6 19.2 48 9.6 0 19.2 19.2 25.6 41.6 6.4 19.2 3.2 38.4-6.4 44.8 9.6 32 9.6 60.8 0 96-3.2 12.8-6.4 35.2-28.8 51.2-3.2 19.2-16 38.4-41.6 51.2-64 32-147.2-35.2-172.8 6.4-32-38.4-16-73.6-22.4-89.6-16-38.4-12.8-86.4-3.2-115.2-9.6-3.2-16-22.4-9.6-44.8s16-38.4 25.6-41.6c6.4-22.4 12.8-41.6 19.2-48 3.2-6.4 16-22.4 32-38.4 0-6.4 0-35.2-3.2-51.2-6.4-57.6-156.8-57.6-188.8-89.6-19.2-19.2-28.8-73.6-28.8-73.6v-6.4c-3.2-19.2 9.6-35.2 28.8-35.2h518.4c19.2 0 32 19.2 25.6 38.4-9.6 25.6-22.4 64-32 76.8z"  horiz-adv-x="1024" />

    
    <glyph glyph-name="xitongguanli" unicode="&#59082;" d="M528 438.4c-38.4 0-70.4-32-70.4-70.4s32-70.4 70.4-70.4 70.4 32 70.4 70.4-32 70.4-70.4 70.4z m217.6 249.6H310.4c-38.4 0-70.4-32-70.4-70.4v-499.2c0-38.4 32-70.4 70.4-70.4h435.2c38.4 0 70.4 32 70.4 70.4V617.6c0 38.4-32 70.4-70.4 70.4z m-32-320c0-9.6 0-16-3.2-25.6l51.2-41.6c3.2-3.2 6.4-9.6 3.2-16l-51.2-86.4c-3.2-6.4-9.6-6.4-16-6.4l-57.6 28.8c-12.8-9.6-25.6-19.2-41.6-25.6l-9.6-67.2c0-6.4-6.4-9.6-12.8-9.6h-99.2c-6.4 0-12.8 3.2-12.8 9.6l-9.6 67.2c-16 6.4-28.8 16-41.6 25.6l-60.8-25.6c-6.4-3.2-12.8 0-16 6.4L288 284.79999999999995c-3.2 6.4-3.2 12.8 3.2 16l51.2 41.6c0 9.6-3.2 16-3.2 25.6s0 16 3.2 25.6l-51.2 41.6c-6.4 3.2-6.4 9.6-3.2 12.8l51.2 86.4c3.2 6.4 9.6 6.4 16 6.4l60.8-25.6c12.8 9.6 25.6 19.2 41.6 25.6l9.6 67.2c0 6.4 6.4 9.6 12.8 9.6h99.2c6.4 0 12.8-3.2 12.8-9.6l9.6-67.2c16-6.4 28.8-16 41.6-25.6l60.8 25.6c6.4 3.2 12.8 0 16-6.4l51.2-86.4c3.2-6.4 3.2-12.8-3.2-16l-51.2-41.6c-3.2-6.4-3.2-12.8-3.2-22.4z"  horiz-adv-x="1024" />

    
    <glyph glyph-name="xitongjichushuju" unicode="&#59083;" d="M544 163.20000000000005c-176 0-320 51.2-320 115.2v-115.2c0-64 144-115.2 320-115.2s320 51.2 320 115.2v115.2c0-64-144-115.2-320-115.2z m0 137.6C368 300.79999999999995 224 352 224 416v-115.2c0-64 144-115.2 320-115.2s320 51.2 320 115.2V416c0-64-144-115.2-320-115.2z m0 134.4c-176 0-320 51.2-320 115.2v-115.2c0-64 144-115.2 320-115.2s320 51.2 320 115.2v115.2c0-64-144-115.2-320-115.2z m0 25.6c176 0 320 51.2 320 115.2s-144 115.2-320 115.2S224 640 224 576s144-115.2 320-115.2z"  horiz-adv-x="1024" />

    
    <glyph glyph-name="xiaoyanzhengshutaizhang" unicode="&#59084;" d="M345.6 288c-28.8 0-32 12.8-32 12.8l-105.6-192 86.4 9.6 48-64s99.2 188.8 99.2 185.6c-51.2 0-32 44.8-96 48z m329.6 3.2c-76.8-6.4-64-25.6-80-38.4-19.2-19.2-44.8-16-44.8-16l121.6-188.8 28.8 70.4 83.2-9.6-108.8 182.4z m-86.4-25.6c12.8 19.2 32 32 57.6 32s38.4 12.8 38.4 35.2 12.8 41.6 35.2 54.4c22.4 12.8 28.8 28.8 16 48s-12.8 41.6 0 60.8c12.8 19.2 6.4 38.4-16 48-22.4 12.8-35.2 28.8-35.2 54.4 0 22.4-12.8 35.2-38.4 35.2-25.6 0-44.8 9.6-57.6 32-12.8 19.2-32 25.6-54.4 12.8s-44.8-12.8-67.2 0c-22.4 12.8-41.6 6.4-54.4-12.8s-32-32-57.6-32-38.4-12.8-38.4-35.2c0-22.4-12.8-41.6-35.2-54.4-22.4-12.8-28.8-28.8-16-48s12.8-41.6 0-60.8c-16-19.2-9.6-35.2 12.8-48s35.2-28.8 35.2-54.4c0-22.4 12.8-35.2 38.4-35.2s44.8-9.6 57.6-32c12.8-19.2 32-25.6 54.4-12.8s44.8 12.8 67.2 0c25.6-9.6 44.8-6.4 57.6 12.8z m-60.8 102.4h-38.4v134.4c-12.8-12.8-32-22.4-51.2-25.6v32c9.6 3.2 22.4 9.6 32 16 12.8 9.6 19.2 19.2 25.6 28.8h32v-185.6z"  horiz-adv-x="1024" />

    
    <glyph glyph-name="xitongshezhi" unicode="&#59085;" d="M208 464v-192l160-96 160 96v192l-160 96-160-96z m268.8-160l-108.8-67.2-108.8 67.2v131.2l108.8 64 108.8-64v-131.2zM342.4 416c-16-9.6-25.6-28.8-25.6-48s9.6-38.4 25.6-48 35.2-9.6 51.2 0 25.6 28.8 25.6 48-9.6 38.4-25.6 48-35.2 9.6-51.2 0zM672 688l-112-67.2v-134.4l112-67.2 112 67.2V620.8L672 688z m-112-438.4v-134.4l112-67.2 112 67.2v134.4L672 316.79999999999995l-112-67.2z"  horiz-adv-x="1024" />

    
    <glyph glyph-name="xiuzhengyinzitaizhang" unicode="&#59086;" d="M528 720c-176 0-320-144-320-320s144-320 320-320 320 144 320 320-144 320-320 320z m-134.4-182.4h25.6c0 12.8 12.8 22.4 25.6 22.4 16 0 25.6-9.6 25.6-22.4h185.6c16 0 25.6-9.6 25.6-22.4s-12.8-22.4-25.6-22.4h-185.6c0-12.8-12.8-35.2-25.6-35.2-16 0-25.6 22.4-25.6 35.2h-25.6c-16 0-25.6 9.6-25.6 22.4 0 9.6 12.8 22.4 25.6 22.4z m268.8-275.2h-185.6c0-12.8-12.8-22.4-25.6-22.4-16 0-25.6 9.6-25.6 22.4h-25.6c-16 0-25.6 9.6-25.6 22.4s12.8 22.4 25.6 22.4h25.6c0 12.8 12.8 22.4 25.6 22.4 16 0 25.6-9.6 25.6-22.4h185.6c16 0 25.6-9.6 25.6-22.4s-12.8-22.4-25.6-22.4z m0 105.6h-25.6c0-19.2-12.8-32-25.6-32s-25.6 12.8-25.6 32h-185.6c-16 0-25.6 12.8-25.6 32s12.8 32 25.6 32h185.6c0 19.2 12.8 32 25.6 32s25.6-12.8 25.6-32h25.6c16 0 25.6-12.8 25.6-32 0-16-12.8-32-25.6-32z"  horiz-adv-x="1024" />

    
    <glyph glyph-name="yiqishebeibaoyangdengji" unicode="&#59087;" d="M531.2 336v6.4-6.4zM736 608h-32V672c0 6.4-64 6.4-64 0v-64h-256V672h-64v-64H288c-9.6 0-64-6.4-64-96v-384c0-80 54.4-96 64-96h448c57.6 0 64 86.4 64 96V512c6.4 92.8-64 96-64 96z m-28.8-448l-51.2-51.2c-6.4-6.4-19.2-6.4-25.6 0l-140.8 140.8c-12.8-6.4-25.6-6.4-41.6-6.4-32 0-64 9.6-89.6 35.2-38.4 38.4-48 99.2-22.4 144 3.2 6.4 9.6 9.6 16 9.6s9.6-3.2 12.8-6.4l60.8-60.8 22.4 22.4-60.8 60.8c-9.6 9.6-6.4 22.4 3.2 28.8 19.2 9.6 38.4 12.8 57.6 12.8 32 0 64-12.8 89.6-38.4 35.2-35.2 44.8-86.4 28.8-131.2l131.2-128 12.8-12.8c6.4-3.2 6.4-12.8-3.2-19.2z"  horiz-adv-x="1024" />

    
    <glyph glyph-name="yiqishebeibaoyangtaizhang" unicode="&#59088;" d="M528 620.8c-76.8 0-140.8-64-140.8-140.8 0-12.8 6.4-22.4 16-28.8s22.4-6.4 32 0 16 16 16 28.8c0 41.6 35.2 76.8 76.8 76.8s76.8-35.2 76.8-76.8c0-19.2 12.8-32 32-32s32 12.8 32 32c-3.2 80-64 140.8-140.8 140.8zM320 448c19.2 0 32 12.8 32 32 0 96 76.8 172.8 172.8 172.8s172.8-76.8 172.8-172.8c0-19.2 12.8-32 32-32s32 12.8 32 32c0 86.4-44.8 163.2-118.4 208-73.6 41.6-163.2 41.6-236.8 0S288 566.4 288 483.2c0-19.2 16-35.2 32-35.2z m486.4-108.8h-249.6V448c0 19.2-12.8 32-32 32s-32-12.8-32-32v-108.8H246.4c-22.4 0-38.4-19.2-38.4-41.6v-179.2c0-22.4 19.2-41.6 38.4-41.6h560c22.4 0 41.6 19.2 41.6 41.6v179.2c0 22.4-19.2 41.6-41.6 41.6z m-476.8-153.6c-6.4-6.4-12.8-9.6-22.4-9.6-19.2 0-32 12.8-32 32s12.8 32 32 32 32-12.8 32-32c0-6.4-3.2-16-9.6-22.4z m96 0c-6.4-6.4-12.8-9.6-22.4-9.6-19.2 0-32 12.8-32 32s12.8 32 32 32 32-12.8 32-32c0-6.4-3.2-16-9.6-22.4z"  horiz-adv-x="1024" />

    
    <glyph glyph-name="yiqishebeibaofei" unicode="&#59089;" d="M784 64h-480c-25.6 0-48 19.2-48 44.8V659.2C256 684.8 278.4 704 304 704h480c25.6 0 48-19.2 48-44.8v-547.2c0-28.8-22.4-48-48-48zM544 640c-124.8 0-224-99.2-224-224s99.2-224 224-224 224 99.2 224 224-99.2 224-224 224z m0-377.6c-35.2 0-67.2 12.8-92.8 28.8l217.6 217.6c19.2-25.6 28.8-57.6 28.8-92.8 0-86.4-67.2-153.6-153.6-153.6z m-137.6 80c-12.8 22.4-19.2 44.8-19.2 73.6 0 86.4 70.4 153.6 153.6 153.6 25.6 0 51.2-6.4 73.6-19.2l-208-208z"  horiz-adv-x="1024" />

    
    <glyph glyph-name="yiqishebeidangan" unicode="&#59090;" d="M528 387.2c-51.2 0-89.6 38.4-92.8 83.2-83.2 12.8-153.6 41.6-198.4 64v-467.2c0-9.6 9.6-19.2 22.4-19.2h531.2c12.8 0 22.4 9.6 22.4 19.2V537.6c-41.6-22.4-108.8-51.2-195.2-67.2 3.2-44.8-38.4-83.2-89.6-83.2z m0-275.2h-192v32h192v-32z m64 96h-256v32h256v-32z m128 96h-384v32h384v-32z m73.6 384H262.4c-12.8 0-22.4-9.6-22.4-19.2V576c38.4-22.4 112-54.4 201.6-70.4 12.8 32 48 54.4 86.4 54.4s70.4-22.4 86.4-54.4c96 16 166.4 51.2 201.6 73.6V668.8c0 9.6-9.6 19.2-22.4 19.2z"  horiz-adv-x="1024" />

    
    <glyph glyph-name="yiqishebeiliuzhuan" unicode="&#59091;" d="M656 144h-192v160l32 32H268.8c-6.4 0-12.8 3.2-19.2 9.6-6.4 6.4-6.4 12.8-6.4 22.4 0 19.2 12.8 32 28.8 32h233.6c16 0 25.6-12.8 28.8-32l201.6 201.6c0 22.4 3.2 48-12.8 64s-35.2 22.4-57.6 22.4H256c-44.8 0-80-35.2-80-80v-416c0-22.4 9.6-41.6 22.4-54.4 16-16 35.2-22.4 57.6-22.4h403.2c44.8 0 70.4 41.6 70.4 86.4v115.2h-28.8l-44.8-140.8z m-390.4 416h332.8c12.8 0 25.6-16 25.6-32 0-19.2-12.8-32-25.6-32H265.6c-6.4 0-12.8 3.2-19.2 9.6-3.2 6.4-6.4 12.8-6.4 22.4 0 19.2 9.6 32 25.6 32z m112-384H262.4c-6.4 0-12.8 3.2-16 9.6-3.2 6.4-6.4 12.8-6.4 22.4 0 19.2 9.6 32 22.4 32h115.2c12.8 0 22.4-16 22.4-32 0-19.2-9.6-32-22.4-32z m432 284.8l-48 44.8c-3.2 3.2-9.6 6.4-12.8 6.4-6.4 0-9.6-3.2-12.8-6.4l-22.4-22.4 76.8-73.6 22.4 22.4c6.4 6.4 6.4 19.2-3.2 28.8z m-118.4 3.2l-176-169.6c-3.2-3.2-3.2-9.6-3.2-12.8v-60.8c0-3.2 0-3.2 3.2-3.2l3.2-3.2h64c3.2 0 9.6 3.2 12.8 3.2l176 169.6-80 76.8z"  horiz-adv-x="1024" />

    
    <glyph glyph-name="yiqishebeiqiyong" unicode="&#59092;" d="M256 720l576-320-576-320v640z"  horiz-adv-x="1024" />

    
    <glyph glyph-name="yiqishebeishengoudan" unicode="&#59093;" d="M390.4 169.60000000000002c9.6 0 16 0 22.4-3.2s12.8-6.4 19.2-12.8c6.4-6.4 9.6-12.8 12.8-19.2 3.2-6.4 6.4-16 6.4-22.4 0-9.6-3.2-16-6.4-22.4-3.2-6.4-6.4-12.8-12.8-19.2s-12.8-9.6-19.2-12.8c-6.4-3.2-16-6.4-22.4-6.4-9.6 0-16 3.2-25.6 6.4-6.4 3.2-12.8 6.4-19.2 12.8-6.4 6.4-9.6 12.8-12.8 19.2-3.2 6.4-6.4 16-6.4 22.4 0 9.6 3.2 16 6.4 22.4 3.2 6.4 6.4 12.8 12.8 19.2s12.8 9.6 19.2 12.8c9.6 0 16 3.2 25.6 3.2z m268.8-3.2c9.6 0 16 0 22.4-3.2s12.8-6.4 19.2-12.8c6.4-6.4 9.6-12.8 12.8-19.2s6.4-16 6.4-22.4-3.2-16-6.4-22.4-6.4-12.8-12.8-19.2c-6.4-6.4-12.8-9.6-19.2-12.8s-16-6.4-22.4-6.4c-9.6 0-16 3.2-22.4 6.4s-12.8 6.4-19.2 12.8c-6.4 6.4-9.6 12.8-12.8 19.2s-6.4 16-6.4 22.4 3.2 16 6.4 22.4 6.4 12.8 12.8 19.2c6.4 6.4 12.8 9.6 19.2 12.8s16 3.2 22.4 3.2zM768 534.4c12.8 0 22.4-3.2 28.8-6.4 6.4-3.2 12.8-6.4 12.8-12.8 3.2-3.2 3.2-9.6 3.2-16s0-9.6-3.2-12.8c0-3.2-3.2-12.8-9.6-22.4-3.2-12.8-22.4-67.2-28.8-83.2-6.4-12.8-9.6-25.6-12.8-35.2-6.4-16-12.8-28.8-22.4-35.2-9.6-6.4-19.2-9.6-32-9.6H371.2l9.6-57.6h326.4c19.2 0 32-9.6 32-25.6 0-9.6-3.2-16-6.4-22.4s-12.8-9.6-25.6-9.6H368c-9.6 0-16 3.2-22.4 6.4s-9.6 9.6-16 16l-9.6 19.2c-3.2 6.4-3.2 12.8-6.4 19.2 0 3.2-3.2 9.6-3.2 19.2-3.2 9.6-3.2 22.4-6.4 38.4s-6.4 32-9.6 51.2-6.4 35.2-9.6 54.4c-9.6 44.8-16 92.8-28.8 144l-16 6.4c-6.4 0-12.8 0-16 3.2l-9.6 9.6c-3.2 6.4-3.2 9.6-6.4 12.8v12.8c0 6.4 3.2 12.8 9.6 19.2 6.4 3.2 12.8 6.4 22.4 6.4l35.2 6.4c9.6 0 16 0 19.2-3.2s9.6-6.4 12.8-9.6c3.2-6.4 6.4-9.6 6.4-12.8s3.2-6.4 3.2-9.6 3.2-9.6 3.2-16 3.2-12.8 3.2-19.2c0-6.4 3.2-16 3.2-25.6H768z m-48 25.6h-224L569.6 640c9.6 9.6 22.4 16 32 16 12.8 0 22.4-3.2 32-16l86.4-80z"  horiz-adv-x="1024" />

    
    <glyph glyph-name="yiqishebeishouquan" unicode="&#59094;" d="M720 80H339.2c-54.4 0-99.2 51.2-99.2 108.8V611.2c0 60.8 44.8 108.8 99.2 108.8h380.8c54.4 0 99.2-51.2 99.2-108.8V192c0-60.8-44.8-112-99.2-112z m-294.4 96h204.8c12.8 0 25.6 12.8 25.6 32s-9.6 32-25.6 32h-204.8c-12.8 0-25.6-12.8-25.6-32s12.8-32 25.6-32z m297.6 393.6c-16 16-38.4 19.2-51.2 3.2l-160-166.4-83.2 86.4c-12.8 16-38.4 12.8-51.2-3.2-16-16-16-38.4-3.2-54.4l108.8-115.2 3.2-3.2c6.4-6.4 12.8-9.6 22.4-9.6h3.2c6.4 0 16 3.2 22.4 9.6l3.2 3.2 188.8 195.2c12.8 16 12.8 41.6-3.2 54.4z"  horiz-adv-x="1024" />

    
    <glyph glyph-name="yiqishebeileibie" unicode="&#59095;" d="M492.8 611.2c9.6-25.6 35.2-41.6 60.8-41.6h259.2c22.4 0 41.6-19.2 41.6-41.6v-374.4c0-22.4-19.2-41.6-41.6-41.6H249.6c-22.4 0-41.6 19.2-41.6 41.6V611.2c0 22.4 19.2 41.6 41.6 41.6h201.6m0 0c19.2 0 35.2-25.6 41.6-41.6"  horiz-adv-x="1024" />

    
    <glyph glyph-name="yiqishebeitingyong" unicode="&#59096;" d="M400 656h-128c-35.2 0-64-28.8-64-64v-448c0-35.2 28.8-64 64-64h128c35.2 0 64 28.8 64 64v448c0 35.2-28.8 64-64 64z m320 0h-128c-35.2 0-64-28.8-64-64v-448c0-35.2 28.8-64 64-64h128c35.2 0 64 28.8 64 64v448c0 35.2-28.8 64-64 64z"  horiz-adv-x="1024" />

    
    <glyph glyph-name="yiqishebeitaizhang" unicode="&#59097;" d="M768 688H288c-25.6 0-48-19.2-48-44.8V96c0-25.6 22.4-44.8 48-44.8h480c25.6 0 48 19.2 48 44.8V643.2c0 25.6-22.4 44.8-48 44.8z m-156.8-192h121.6c9.6 0 19.2-6.4 19.2-16s-9.6-16-19.2-16h-121.6c-9.6 0-19.2 6.4-19.2 16s9.6 16 19.2 16z m-83.2-313.6c0-19.2-19.2-35.2-41.6-35.2h-144c-22.4 0-41.6 16-41.6 35.2v54.4c0 19.2 19.2 35.2 41.6 35.2h144c22.4 0 41.6-16 41.6-35.2v-54.4z m0 224c0-19.2-19.2-35.2-41.6-35.2h-144c-22.4 0-41.6 16-41.6 35.2v54.4c0 19.2 19.2 35.2 41.6 35.2h144c22.4 0 41.6-16 41.6-35.2v-54.4z m64-150.4c0 9.6 9.6 16 19.2 16h121.6c9.6 0 19.2-6.4 19.2-16s-9.6-16-19.2-16h-121.6c-9.6 0-19.2 6.4-19.2 16z m137.6-112h-86.4c-12.8 0-22.4 6.4-22.4 16s9.6 16 22.4 16h86.4c12.8 0 22.4-6.4 22.4-16s-9.6-16-22.4-16z m0 224h-86.4c-12.8 0-22.4 6.4-22.4 16s9.6 16 22.4 16h86.4c12.8 0 22.4-6.4 22.4-16s-9.6-16-22.4-16z"  horiz-adv-x="1024" />

    
    <glyph glyph-name="yiqishebeiweixiudengji" unicode="&#59098;" d="M489.6 528c-32 0-64-19.2-70.4-48l25.6-54.4c19.2-16 54.4-32 70.4-48h-147.2c-19.2 0-38.4-16-38.4-35.2 0-16 9.6-28.8 22.4-32-9.6-6.4-19.2-19.2-19.2-32 0-16 12.8-32 28.8-35.2-6.4-6.4-9.6-16-9.6-22.4 0-19.2 16-35.2 35.2-35.2-6.4-6.4-9.6-16-9.6-25.6 0-19.2 16-35.2 35.2-35.2H576l32 32 102.4 9.6v-48h137.6v281.6h-137.6v-35.2h-48c-22.4 80-160 73.6-172.8 163.2z m-89.6 3.2l-16-16 54.4-128h-89.6l-41.6 96c-32-3.2-64 3.2-89.6 25.6-16 54.4-12.8 96-3.2 134.4 6.4 3.2 12.8 3.2 19.2 6.4 9.6-28.8 22.4-57.6 32-86.4 35.2-3.2 60.8 6.4 86.4 32-9.6 28.8-22.4 57.6-32 86.4 6.4 3.2 12.8 3.2 19.2 6.4 32-22.4 60.8-51.2 86.4-102.4-3.2-19.2-12.8-38.4-25.6-54.4z m83.2-432l16-35.2c16-25.6 80-22.4 83.2 12.8l-9.6 22.4h-89.6z"  horiz-adv-x="1024" />

    
    <glyph glyph-name="yiqishebeiweixiutaizhang" unicode="&#59099;" d="M416 544h256v32h-256v-32z m320-160h-256v-32h256v32z m0 288H352c-54.4 0-96-41.6-96-96v-448c0-54.4 41.6-96 96-96h384c54.4 0 96 41.6 96 96V576c0 54.4-41.6 96-96 96zM320 608h416v-96H320V608z m416-480H320v96h416v-96z m64 192H384v96h416v-96z m-128-128h-256v-32h256v32z"  horiz-adv-x="1024" />

    
    <glyph glyph-name="yiqishebeixinxi" unicode="&#59100;" d="M544 688c-160 0-288-128-288-288v-64c0-160 128-288 288-288s288 128 288 288v64c0 160-128 288-288 288z m64-512c0-35.2-28.8-64-64-64s-64 28.8-64 64v128c0 35.2 28.8 64 64 64s64-28.8 64-64v-128z m-64 224c-35.2 0-64 28.8-64 64s28.8 64 64 64 64-28.8 64-64-28.8-64-64-64z"  horiz-adv-x="1024" />

    
    <glyph glyph-name="yingxiaoguanli" unicode="&#59101;" d="M464 176h128v224l-57.6-44.8-70.4 44.8v-224z m192 281.6v-281.6h160v288l-60.8 86.4-99.2-92.8z m-416-281.6h160l3.2 249.6-48 32-118.4-89.6 3.2-192z m576-32h-576c-12.8 0-32-19.2-32-32s9.6-32 22.4-32h595.2c12.8 0 22.4 19.2 22.4 32s-19.2 32-32 32zM259.2 428.8l92.8 76.8 179.2-105.6 211.2 195.2 3.2 3.2 35.2-35.2 57.6 156.8-163.2-51.2 38.4-38.4-185.6-172.8-176 105.6-118.4-96c-9.6-9.6-9.6-22.4-3.2-32 6.4-12.8 19.2-12.8 28.8-6.4z"  horiz-adv-x="1024" />

    
    <glyph glyph-name="yiqishebeiyanshoudengji" unicode="&#59102;" d="M585.6 105.60000000000002l67.2 54.4-51.2 28.8-16-83.2zM608 192l51.2-28.8 70.4 112 41.6 67.2-38.4 22.4-12.8 6.4L608 192z m140.8 214.4c-6.4-3.2-12.8-6.4-19.2-12.8l-9.6-16 51.2-28.8 9.6 16c3.2 6.4 6.4 16 3.2 22.4s-6.4 12.8-12.8 16c-6.4 6.4-19.2 6.4-22.4 3.2zM352 592c-25.6 0-48-22.4-48-51.2v-25.6c0-28.8 22.4-51.2 48-51.2h32c25.6 0 48 22.4 48 51.2v25.6c0 28.8-22.4 51.2-48 51.2h-32z m214.4-320h-240c-12.8-3.2-25.6-16-25.6-32s9.6-28.8 25.6-32h240c12.8 3.2 25.6 16 25.6 32s-9.6 28.8-25.6 32z m35.2 128h-275.2c-12.8-3.2-22.4-16-22.4-32s9.6-28.8 22.4-32h275.2c12.8 3.2 22.4 16 22.4 32s-9.6 28.8-22.4 32z m-233.6 288h320c70.4 0 128-64 128-140.8V192c0-38.4-12.8-73.6-38.4-99.2-25.6-25.6-57.6-41.6-89.6-41.6h-320c-35.2 0-67.2 16-89.6 41.6-25.6 25.6-38.4 64-38.4 99.2V547.2c0 76.8 57.6 140.8 128 140.8z"  horiz-adv-x="1024" />

    
    <glyph glyph-name="yiqishebeiyanshoutaizhang" unicode="&#59103;" d="M768 720H288c-25.6 0-48-19.2-48-44.8V128c0-25.6 22.4-44.8 48-44.8h480c25.6 0 48 19.2 48 44.8V675.2c0 25.6-22.4 44.8-48 44.8z m-128-192h96c9.6 0 16-6.4 16-16s-6.4-16-16-16h-96c-9.6 0-16 6.4-16 16s6.4 16 16 16z m-112-313.6c0-19.2-19.2-35.2-41.6-35.2h-144c-22.4 0-41.6 16-41.6 35.2v54.4c0 19.2 19.2 35.2 41.6 35.2h144c22.4 0 41.6-16 41.6-35.2v-54.4z m12.8 153.6h-182.4c-28.8 0-51.2 38.4-51.2 83.2v121.6c0 44.8 22.4 83.2 51.2 83.2H540.8h-19.2c22.4 0 73.6-38.4 73.6-83.2v-121.6c-3.2-48-25.6-83.2-54.4-83.2z m51.2-80c0 9.6 9.6 16 19.2 16h121.6c9.6 0 19.2-6.4 19.2-16s-9.6-16-19.2-16h-121.6c-9.6 0-19.2 6.4-19.2 16z m137.6-112h-86.4c-12.8 0-22.4 6.4-22.4 16s9.6 16 22.4 16h86.4c12.8 0 22.4-6.4 22.4-16s-9.6-16-22.4-16z m0 224h-86.4c-12.8 0-22.4 6.4-22.4 16s9.6 16 22.4 16h86.4c12.8 0 22.4-6.4 22.4-16s-9.6-16-22.4-16z m-304 105.6l-44.8 44.8-44.8-44.8 89.6-89.6 44.8 44.8 89.6 89.6-44.8 44.8-89.6-89.6z"  horiz-adv-x="1024" />

    
    <glyph glyph-name="yonghudaoru" unicode="&#59104;" d="M208 172.79999999999995v-92.8h640v92.8h-640z m256 176l-134.4-134.4h428.8V643.2l-128-128-89.6 89.6-166.4-166.4 89.6-89.6z m-134.4 128c12.8-12.8 35.2-9.6 48 3.2l115.2 115.2c16 16 16 35.2 3.2 48-9.6 12.8-32 12.8-48-3.2l-115.2-115.2c-12.8-12.8-16-35.2-3.2-48z m-22.4 73.6l115.2 115.2c16 12.8 16 35.2 3.2 48s-35.2 9.6-48-3.2L262.4 592c-16-16-16-35.2-3.2-48 9.6-9.6 32-9.6 48 6.4z"  horiz-adv-x="1024" />

    
    <glyph glyph-name="yuangongguanli" unicode="&#59105;" d="M540.8 358.4c57.6 28.8 96 86.4 96 153.6 0 92.8-76.8 169.6-169.6 169.6S297.6 604.8 297.6 512c0-67.2 38.4-124.8 96-153.6-105.6-32-179.2-128-179.2-243.2v-6.4c0-3.2 3.2-9.6 3.2-12.8 3.2-6.4 51.2-48 268.8-48h6.4c150.4 0 220.8 48 224 51.2 3.2 3.2 6.4 9.6 6.4 16-3.2 112-80 211.2-182.4 243.2z m137.6 6.4c51.2 28.8 86.4 86.4 86.4 147.2 0 99.2-70.4 176-163.2 176-9.6 0-19.2-9.6-19.2-19.2s9.6-19.2 19.2-19.2c70.4 0 128-60.8 128-137.6 0-64-41.6-118.4-105.6-131.2-9.6-3.2-16-9.6-12.8-19.2 0-3.2 3.2-9.6 6.4-12.8s6.4-6.4 9.6-6.4c76.8-12.8 185.6-96 185.6-220.8 0-9.6 9.6-19.2 19.2-19.2s19.2 9.6 19.2 19.2c-3.2 121.6-92.8 211.2-172.8 243.2z"  horiz-adv-x="1024" />

    
    <glyph glyph-name="yonghuguanli" unicode="&#59106;" d="M636.8 470.4c3.2 12.8 3.2 22.4 3.2 35.2 0 118.4-80 214.4-179.2 214.4s-179.2-96-179.2-214.4c0-83.2 41.6-156.8 99.2-192-16-41.6-54.4-67.2-134.4-92.8-25.6-9.6-70.4-35.2-70.4-89.6 0-54.4 44.8-54.4 70.4-54.4h249.6v249.6c0 80 60.8 144 140.8 144z m144-176v35.2c0 57.6-48 105.6-105.6 105.6s-105.6-48-105.6-105.6v-35.2c-19.2 0-35.2-16-35.2-35.2v-144c0-19.2 16-35.2 35.2-35.2h214.4c19.2 0 35.2 16 35.2 35.2v144c-3.2 19.2-19.2 35.2-38.4 35.2z m-70.4 0H640v35.2c0 19.2 16 35.2 35.2 35.2s35.2-16 35.2-35.2v-35.2z"  horiz-adv-x="1024" />

    
    <glyph glyph-name="zixiaoyandengji" unicode="&#59107;" d="M400 464h-64c-35.2-16-64-60.8-64-89.6v-70.4h448v70.4c0 16-3.2 89.6-64 89.6h-64v64c0 57.6-35.2 96-96 96s-96-38.4-96-96v-64z m-192 153.6c0 38.4 32 70.4 70.4 70.4h435.2c38.4 0 70.4-32 70.4-70.4v-499.2c0-38.4-32-70.4-70.4-70.4H278.4c-38.4 0-70.4 32-70.4 70.4V617.6z m64-441.6c0-19.2 16-32 38.4-32h374.4c19.2 0 38.4 12.8 38.4 32s-16 32-38.4 32H310.4c-22.4 0-38.4-16-38.4-32z m224 307.2c-12.8 0-25.6 6.4-32 19.2-6.4 9.6-6.4 25.6 0 35.2s19.2 19.2 32 19.2c19.2 0 38.4-16 38.4-35.2 0-25.6-19.2-38.4-38.4-38.4z"  horiz-adv-x="1024" />

    
    <glyph glyph-name="yuangongzhengshu" unicode="&#59108;" d="M720 624h-384c-70.4 0-128-57.6-128-128v-256c0-70.4 57.6-128 128-128h384c70.4 0 128 57.6 128 128v256c0 70.4-57.6 128-128 128z m-172.8-416H316.8c-9.6 0-12.8 9.6-12.8 19.2v3.2s6.4 28.8 12.8 38.4c12.8 16 80 16 86.4 44.8v25.6c-6.4 6.4-12.8 16-12.8 19.2-3.2 3.2-6.4 12.8-9.6 25.6-3.2 0-9.6 9.6-12.8 19.2-3.2 9.6 0 22.4 3.2 22.4-3.2 16-6.4 38.4 3.2 57.6 3.2 9.6-3.2 25.6 9.6 44.8 12.8-22.4 48 12.8 76.8-3.2 12.8-6.4 16-16 19.2-25.6 9.6-9.6 12.8-19.2 12.8-25.6 3.2-16 3.2-32 0-48 3.2-3.2 6.4-12.8 3.2-22.4-3.2-9.6-6.4-19.2-12.8-19.2-3.2-12.8-6.4-22.4-9.6-25.6 0-3.2-6.4-12.8-16-22.4v-25.6c3.2-28.8 70.4-28.8 86.4-44.8 3.2-6.4 9.6-25.6 12.8-38.4 6.4-9.6 0-19.2-9.6-19.2z m204.8 0h-96v32h96v-32z m0 96h-192v32h192v-32z m0 96h-192v32h192v-32z"  horiz-adv-x="1024" />

    
    <glyph glyph-name="yingxiaoguanli2" unicode="&#59109;" d="M608 208h-192c-19.2 0-32-12.8-32-32v-128c0-19.2 12.8-32 32-32h192c19.2 0 32 12.8 32 32v128c0 19.2-12.8 32-32 32z m-64-128h-64c-19.2 0-32 12.8-32 32s12.8 32 32 32h64c19.2 0 32-12.8 32-32 0-16-12.8-32-32-32z m64 608h-192c-19.2 0-32-12.8-32-32v-128c0-19.2 12.8-32 32-32h192c19.2 0 32 12.8 32 32v128c0 19.2-12.8 32-32 32z m-64-128h-64c-19.2 0-32 12.8-32 32s12.8 32 32 32h64c19.2 0 32-12.8 32-32s-12.8-32-32-32z m182.4 96h-9.6c-22.4 0-41.6-19.2-41.6-41.6 0-22.4 19.2-41.6 41.6-41.6h9.6c48 0 54.4-35.2 54.4-80s-6.4-80-54.4-80h-9.6c-22.4 0-41.6-19.2-41.6-41.6 0-22.4 19.2-41.6 41.6-41.6h9.6c92.8 0 137.6 70.4 137.6 160 0 96-44.8 166.4-137.6 166.4z m-118.4-224h-192c-19.2 0-32-12.8-32-32v-128c0-16 12.8-32 32-32h192c19.2 0 32 12.8 32 32v128c0 16-12.8 32-32 32z m-64-128h-64c-19.2 0-32 12.8-32 32s12.8 32 32 32h64c19.2 0 32-12.8 32-32s-12.8-32-32-32z m-246.4-16h9.6c22.4 0 41.6 19.2 41.6 38.4 0 22.4-19.2 38.4-41.6 38.4h-9.6c-92.8 0-137.6-70.4-137.6-160s44.8-160 137.6-160h9.6c22.4 0 41.6 19.2 41.6 38.4 0 22.4-19.2 38.4-41.6 38.4h-9.6c-48 0-54.4 35.2-54.4 80 3.2 51.2 9.6 86.4 54.4 86.4z"  horiz-adv-x="1024" />

    
    <glyph glyph-name="baogaofuhe" unicode="&#59110;" d="M806.4 252.8c-54.4-96-156.8-160-278.4-160-134.4 0-246.4 80-294.4 192h80c41.6-73.6 121.6-121.6 214.4-121.6 89.6 0 169.6 48 211.2 118.4l-38.4 16 121.6 76.8 25.6-134.4-41.6 12.8z m-278.4 275.2c115.2 0 185.6-131.2 185.6-131.2s-73.6-131.2-185.6-131.2c-121.6 0-185.6 131.2-185.6 131.2s64 131.2 185.6 131.2z m0-208c44.8 0 80 35.2 80 76.8 0 41.6-35.2 76.8-80 76.8S448 438.4 448 396.8c0-41.6 35.2-76.8 80-76.8z m0 76.8l-12.8 48c3.2 0 9.6 3.2 12.8 3.2 28.8 0 51.2-22.4 51.2-51.2 0-28.8-22.4-51.2-51.2-51.2-28.8 0-51.2 22.4-51.2 51.2 0 6.4 0 12.8 3.2 19.2l48-19.2z m0 233.6c-89.6 0-169.6-48-211.2-118.4l38.4-16-121.6-76.8-25.6 134.4 41.6-16c54.4 96 156.8 160 278.4 160 134.4 0 246.4-80 294.4-192h-80c-41.6 76.8-121.6 124.8-214.4 124.8z"  horiz-adv-x="1024" />

    
    <glyph glyph-name="baogaobianzhi" unicode="&#59111;" d="M800 192H192V672c0 12.8 19.2 32 32 32 0 0 32 0 32-32v-416h544c25.6 0 32-3.2 32-32s-19.2-32-32-32z m-240 112L448 288h-3.2c-3.2 0-6.4 0-9.6 3.2-3.2 3.2-6.4 6.4-6.4 12.8l12.8 112 256 268.8c9.6 9.6 19.2 16 32 16 9.6 0 19.2-3.2 25.6-9.6l57.6-54.4c9.6-6.4 12.8-19.2 12.8-32s-3.2-22.4-12.8-32l-252.8-268.8z m-76.8 92.8l-9.6-64 64 9.6-54.4 54.4z m300.8 208l-54.4 54.4-9.6-12.8 54.4-54.4 9.6 12.8zM256 128h32v32h64v-32h32v32h64v-32h32v32h64v-32h32v32h64v-32h64v32h32v-32h32v32h64v-96H192v96h64v-32z"  horiz-adv-x="1024" />

    
    <glyph glyph-name="baogaoguanli" unicode="&#59112;" d="M838.4 211.2h-32c-3.2-9.6-6.4-19.2-12.8-28.8l22.4-22.4c3.2-3.2 3.2-9.6 0-16l-35.2-35.2c-3.2-3.2-3.2-3.2-6.4-3.2s-6.4 0-6.4 3.2l-22.4 22.4c-9.6-6.4-19.2-9.6-28.8-12.8v-32c0-6.4-3.2-9.6-9.6-9.6h-51.2c-6.4 0-9.6 3.2-9.6 9.6v32c-9.6 3.2-19.2 6.4-28.8 12.8l-22.4-22.4c-3.2-3.2-3.2-3.2-6.4-3.2s-6.4 0-6.4 3.2l-35.2 35.2c-3.2 3.2-3.2 9.6 0 16l22.4 22.4c-6.4 9.6-9.6 19.2-12.8 28.8h-32c-6.4 0-9.6 3.2-9.6 9.6v51.2c0 6.4 3.2 9.6 9.6 9.6h32c3.2 9.6 6.4 19.2 12.8 28.8l-22.4 22.4c-3.2 3.2-3.2 9.6 0 16l35.2 35.2c3.2 3.2 3.2 3.2 6.4 3.2s6.4 0 6.4-3.2l22.4-22.4c9.6 6.4 19.2 9.6 28.8 12.8v32c0 6.4 3.2 9.6 9.6 9.6H704c6.4 0 9.6-3.2 9.6-9.6v-32c9.6-3.2 19.2-6.4 28.8-12.8l22.4 22.4h9.6c3.2 0 6.4 0 6.4-3.2l35.2-35.2c3.2-3.2 3.2-9.6 0-16l-22.4-22.4c6.4-9.6 9.6-19.2 12.8-28.8h32c6.4 0 9.6-3.2 9.6-9.6v-51.2c0-3.2-3.2-6.4-9.6-6.4zM768 268.8l-9.6 19.2-12.8 22.4-22.4 12.8-19.2 9.6-25.6 6.4-25.6-6.4-19.2-9.6-22.4-12.8-12.8-22.4-9.6-19.2-6.4-25.6 6.4-25.6 9.6-19.2 12.8-22.4 22.4-12.8 19.2-9.6 25.6-6.4 25.6 6.4 19.2 9.6 22.4 12.8 12.8 22.4 9.6 19.2 6.4 25.6-6.4 25.6z m-89.6-86.4c-35.2 0-64 28.8-64 64s28.8 64 64 64 64-28.8 64-64-28.8-64-64-64z m0 86.4c-12.8 0-22.4-9.6-22.4-22.4 0-12.8 9.6-22.4 22.4-22.4 12.8 0 22.4 9.6 22.4 22.4 3.2 12.8-9.6 22.4-22.4 22.4zM448 160h-128c-9.6 0-16 6.4-16 16s6.4 16 16 16h128c9.6 0 16-6.4 16-16s-6.4-16-16-16z m0 128h-128c-9.6 0-16 6.4-16 16s6.4 16 16 16h128c9.6 0 16-6.4 16-16s-6.4-16-16-16z m0 192h-128c-9.6 0-16 6.4-16 16s6.4 16 16 16h128c9.6 0 16-6.4 16-16s-6.4-16-16-16z m0-96h-128c-9.6 0-16 6.4-16 16s6.4 16 16 16h128c9.6 0 16-6.4 16-16s-6.4-16-16-16z m300.8 32c-9.6 0-19.2 6.4-19.2 19.2h-131.2c-38.4 0-67.2 28.8-67.2 67.2V611.2h-256v-512h288v-64H291.2c-44.8 0-83.2 38.4-83.2 83.2V588.8C208 633.6 246.4 672 291.2 672H544c9.6 0 22.4-3.2 32-9.6 6.4-3.2 12.8-9.6 19.2-12.8l153.6-153.6c6.4-6.4 9.6-12.8 16-19.2 6.4-9.6 6.4-19.2 6.4-28.8v-16c-3.2-9.6-12.8-16-22.4-16z"  horiz-adv-x="1024" />

    
    <glyph glyph-name="baogaoshenpi" unicode="&#59113;" d="M819.2 96h-214.4c-22.4 0-38.4 16-38.4 38.4v22.4c0 22.4 16 38.4 38.4 38.4h54.4l32 76.8c-19.2 6.4-35.2 22.4-41.6 41.6-12.8 35.2 6.4 73.6 41.6 83.2 6.4 3.2 12.8 3.2 22.4 3.2 28.8 0 54.4-16 64-44.8 12.8-35.2-6.4-73.6-41.6-83.2l25.6-73.6h60.8c22.4 0 38.4-16 38.4-38.4v-22.4c0-25.6-19.2-41.6-41.6-41.6z m-137.6 332.8c-54.4-16-83.2-73.6-64-128 6.4-16 12.8-28.8 25.6-38.4l-16-35.2H608c-41.6 0-73.6-32-73.6-73.6v-22.4c0-12.8 3.2-28.8 12.8-38.4H265.6c-25.6 0-44.8 19.2-44.8 44.8V627.2c0 25.6 19.2 44.8 44.8 44.8h409.6c25.6 0 44.8-19.2 44.8-44.8v-192h-9.6c-9.6 0-19.2-3.2-28.8-6.4zM339.2 256h179.2c12.8 0 22.4 6.4 22.4 16s-9.6 16-22.4 16h-179.2c-12.8 0-22.4-6.4-22.4-16s9.6-16 22.4-16z m115.2 288h-115.2c-12.8 0-22.4-6.4-22.4-16s9.6-16 22.4-16h115.2c12.8 0 22.4 6.4 22.4 16s-9.6 16-22.4 16z m96-128h-211.2c-12.8 0-22.4-6.4-22.4-16s9.6-16 22.4-16h211.2c12.8 0 22.4 6.4 22.4 16s-9.6 16-22.4 16z"  horiz-adv-x="1024" />

    
    <glyph glyph-name="baogaoshenhe" unicode="&#59114;" d="M691.2 28.8c-118.4 0-227.2 105.6-224 224 3.2 118.4 102.4 195.2 220.8 195.2s195.2-76.8 195.2-195.2c0-118.4-73.6-224-192-224z m0 352c-92.8 0-163.2-35.2-160-128 3.2-92.8 67.2-160 160-160s128 67.2 128 160-32 128-128 128z m-38.4-217.6c-6.4-6.4-12.8-9.6-19.2-9.6s-12.8 3.2-16 6.4l-51.2 51.2c-9.6 9.6-9.6 25.6 0 35.2 9.6 9.6 25.6 9.6 35.2 0l32-32 105.6 105.6c9.6 9.6 25.6 9.6 35.2 0 9.6-9.6 9.6-25.6 0-35.2l-121.6-121.6c0 3.2 0 0 0 0z m38.4 377.6v32c0 32 0 32-32 32h-320c-35.2 0-32 6.4-32-32v-416c0-22.4 3.2-32 32-32h64c25.6 0 28.8-64 0-64h-96c-32 0-51.2 28.8-60.8 57.6-3.2 6.4-3.2 16-3.2 25.6v227.2 214.4c0 76.8 44.8 83.2 86.4 83.2H672c67.2 0 86.4-22.4 86.4-86.4v-41.6c0-35.2-67.2-32-67.2 0z m-320 0h256c35.2 0 28.8-64 0-64h-256c-32 0-28.8 64 0 64z m0-128h64c35.2 0 28.8-64 0-64h-64c-32 0-28.8 64 0 64z"  horiz-adv-x="1024" />

    
    <glyph glyph-name="guanlibumenshenhe1" unicode="&#59115;" d="M512 704C336 704 192 560 192 384s144-320 320-320 320 144 320 320S688 704 512 704z m140.8-460.8c0-12.8-9.6-19.2-19.2-19.2h-240c-12.8 0-19.2 9.6-19.2 19.2v83.2c0 16 16 32 32 32h48c12.8 12.8 9.6 12.8-3.2 28.8 0 3.2-3.2 9.6-9.6 12.8-9.6 16-16 35.2-16 57.6 0 48 41.6 89.6 89.6 89.6 48 0 86.4-41.6 86.4-89.6 0-16-3.2-28.8-12.8-44.8-3.2-3.2-3.2-9.6-6.4-12.8-16-25.6-16-25.6-3.2-35.2h44.8c19.2 0 35.2-16 35.2-35.2v-83.2h-6.4z m0 0"  horiz-adv-x="1024" />

    
    <glyph glyph-name="baogaozhongshen" unicode="&#59116;" d="M604.8 617.6c12.8 0 22.4 9.6 22.4 22.4 0 12.8-9.6 22.4-22.4 22.4s-25.6-9.6-25.6-22.4c0-12.8 9.6-22.4 25.6-22.4zM800 246.4c0 25.6-22.4 44.8-48 44.8 0 0-96 0-140.8 80-28.8 54.4-3.2 92.8 6.4 102.4l3.2 3.2c16 19.2 28.8 44.8 32 70.4v3.2c0 12.8-9.6 22.4-22.4 22.4-12.8 0-22.4-9.6-22.4-22.4-3.2-19.2-12.8-38.4-28.8-54.4 0-3.2-9.6-12.8-12.8-22.4-25.6-51.2-12.8-118.4 28.8-163.2 25.6-25.6 60.8-54.4 140.8-70.4 12.8 0 6.4-12.8 6.4-22.4H272c0 12.8 9.6 22.4 19.2 22.4 80 16 115.2 44.8 140.8 70.4 38.4 44.8 54.4 112 28.8 163.2-3.2 9.6-6.4 12.8-12.8 22.4l-3.2 3.2c-16 16-28.8 38.4-28.8 64 0 51.2 41.6 89.6 96 89.6H521.6c12.8 0 22.4 9.6 22.4 22.4 0 19.2-9.6 28.8-22.4 28.8H512c-80 0-144-60.8-144-134.4 0-35.2 16-67.2 38.4-92.8 9.6-12.8 32-51.2 6.4-102.4-44.8-76.8-140.8-80-140.8-80-25.6 0-48-19.2-48-44.8V160h96v-64c0-25.6 6.4-32 32-32h320c25.6 0 32 6.4 32 32v64h96v86.4zM640 128h-256v32h256v-32z"  horiz-adv-x="1024" />

    
    <glyph glyph-name="jishubumenshenhe1" unicode="&#59117;" d="M768 448c16 0 38.4 25.6 25.6 35.2l-259.2 217.6c-9.6 9.6-28.8 9.6-41.6 0L230.4 480c-9.6-6.4 9.6-32 25.6-32h64c16 0 32-19.2 32-32v-128c0-12.8 16-32 32-32h256c16 0 32 19.2 32 32v128c0 12.8 16 32 32 32h64z m-121.6-288h-272c-12.8 0-25.6 12.8-25.6 32 0 16 12.8 32 25.6 32h272c12.8 0 25.6-12.8 25.6-32v-3.2c0-16-12.8-28.8-25.6-28.8z m-35.2-96h-201.6c-16 0-28.8 12.8-28.8 32v3.2c0 16 12.8 32 28.8 32h201.6c16 0 28.8-12.8 28.8-32v-3.2c0-19.2-12.8-32-28.8-32z m0 0"  horiz-adv-x="1024" />

    
    <glyph glyph-name="hetongxinxiweihu" unicode="&#59118;" d="M656 144c-96 0-176 80-176 176s80 176 176 176h16c102.4 0 160-80 160-176s-80-176-176-176z m22.4 316.8v-51.2c0-12.8-9.6-19.2-19.2-19.2H640c-9.6 0-19.2 9.6-19.2 19.2v51.2c-22.4-12.8-38.4-38.4-38.4-64s16-54.4 38.4-64v-115.2c0-12.8 9.6-19.2 19.2-19.2h19.2c9.6 0 19.2 9.6 19.2 19.2v115.2c22.4 12.8 38.4 38.4 38.4 64s-12.8 51.2-38.4 64z m-28.8-249.6c-6.4 0-9.6 3.2-9.6 9.6 0 6.4 3.2 9.6 9.6 9.6 3.2 0 6.4 0 6.4-3.2 3.2-3.2 3.2-3.2 3.2-6.4s-3.2-9.6-9.6-9.6z m-211.2 156.8H288v32h160c-3.2-9.6-6.4-22.4-9.6-32z m35.2 96H288v32h224c-16-9.6-28.8-19.2-38.4-32z m-217.6 96v-352h224c16-19.2 51.2-51.2 73.6-64H236.8c-25.6 0-44.8 22.4-44.8 48V576c0 25.6 19.2 48 44.8 48h457.6c25.6 0 44.8-22.4 44.8-48v-48c-19.2 9.6-67.2 32-67.2 32H256z"  horiz-adv-x="1024" />

    
    </font>
</defs>
</svg>
